<?xml version="1.0" encoding="UTF-8"?>
<svg xmlns="http://www.w3.org/2000/svg" xmlns:xlink="http://www.w3.org/1999/xlink" viewBox="130 545 445 405">
<path fill-rule="nonzero" fill="#286983" fill-opacity="1" d="M 353.3125 763.285156 L 354.410156 740.125 L 354.960938 739.925781 L 377.75 752.613281 L 379 753.796875 L 373.242188 768.558594 Z M 359.621094 782.304688 L 359.617188 782.023438 L 353.167969 764.003906 L 372.449219 769.105469 Z M 335.996094 783.570312 L 352.617188 764.628906 L 358.886719 782.152344 L 358.890625 782.589844 Z M 390.890625 775.238281 L 386.476562 781.890625 L 373.851562 769 L 379.839844 753.648438 L 383.820312 755.792969 L 383.820312 754.960938 L 381.375 753.640625 L 379.640625 753.640625 L 379.640625 753 L 379.339844 753 L 379.351562 753.121094 L 379.222656 753 L 378.195312 753 L 378.195312 752.027344 L 378.183594 752.019531 L 355.171875 739.203125 L 355.027344 739.125 L 353.703125 739.601562 L 352.726562 760.171875 L 341.792969 734.355469 L 340.996094 734.355469 L 353.246094 763.269531 L 353.113281 763.234375 L 353.019531 763.585938 L 352.882812 763.210938 L 334.738281 783.898438 L 315.839844 786.464844 L 315.839844 787.203125 L 334.96875 784.605469 L 335.105469 784.585938 L 335.117188 784.570312 L 333.539062 803.570312 L 334.273438 803.570312 L 335.875 784.308594 L 358.902344 783.324219 L 359.144531 803.570312 L 359.875 803.570312 L 359.628906 783.292969 L 359.679688 783.289062 L 373.199219 769.378906 L 386.0625 782.511719 L 385.859375 782.820312 L 385.859375 783.363281 L 360.574219 803.566406 L 360.546875 803.570312 L 361.734375 803.570312 L 385.859375 784.296875 L 385.859375 800.089844 L 386.589844 800.089844 L 386.589844 783.714844 L 387.527344 782.964844 L 387 782.421875 L 390.890625 776.558594 Z M 390.890625 775.238281 "/>
<path fill-rule="nonzero" fill="#286983" fill-opacity="1" d="M 344.769531 732.398438 L 353.996094 738.691406 L 368.070312 734.484375 L 368.070312 733.722656 L 354.117188 737.890625 L 344.769531 731.511719 Z M 344.769531 732.398438 "/>
<path fill-rule="nonzero" fill="#286983" fill-opacity="1" d="M 333.355469 744.261719 L 352.011719 739.171875 L 351.820312 738.464844 L 333.355469 743.503906 Z M 333.355469 744.261719 "/>
<path fill-rule="nonzero" fill="#286983" fill-opacity="1" d="M 326.929688 755.097656 L 326.929688 755.859375 L 351.8125 763.210938 L 352.019531 762.511719 Z M 326.929688 755.097656 "/>
<path fill-rule="nonzero" fill="#286983" fill-opacity="1" d="M 326.929688 760.96875 L 352.824219 740.042969 L 352.363281 739.472656 L 326.929688 760.027344 Z M 326.929688 760.96875 "/>
<path fill-rule="nonzero" fill="#286983" fill-opacity="1" d="M 322.105469 764.863281 L 326.046875 761.679688 L 324.882812 761.679688 L 322.105469 763.921875 Z M 322.105469 764.863281 "/>
<path fill-rule="nonzero" fill="#286983" fill-opacity="1" d="M 378 754.023438 L 354.960938 762.484375 L 352.070312 761.96875 L 333.355469 747.101562 L 333.355469 747.214844 L 332.320312 747.214844 L 351.6875 762.597656 L 351.761719 762.65625 L 355.027344 763.238281 L 378.25 754.707031 Z M 378 754.023438 "/>
<path fill-rule="nonzero" fill="#286983" fill-opacity="1" d="M 371.308594 739.179688 L 353.769531 761.617188 L 354.34375 762.070312 L 372.234375 739.179688 Z M 371.308594 739.179688 "/>
<path fill-rule="nonzero" fill="#286983" fill-opacity="1" d="M 334.832031 782.664062 L 320.339844 769.027344 L 320.339844 770.03125 L 334.339844 783.203125 L 357.101562 803.570312 L 358.199219 803.570312 Z M 334.832031 782.664062 "/>
<path fill-rule="nonzero" fill="#286983" fill-opacity="1" d="M 381.554688 800.089844 L 360.640625 783.226562 L 357.3125 784.640625 L 340.273438 803.570312 L 341.257812 803.570312 L 357.746094 785.25 L 360.523438 784.074219 L 380.390625 800.089844 Z M 381.554688 800.089844 "/>
<path fill-rule="nonzero" fill="#286983" fill-opacity="1" d="M 385.222656 783.296875 L 361.367188 783.296875 L 361.367188 782.566406 L 384.8125 782.566406 L 385.832031 780.890625 L 379.367188 754.449219 L 380.078125 754.277344 L 386.617188 781.011719 Z M 385.222656 783.296875 "/>
<path fill-rule="nonzero" fill="#286983" fill-opacity="1" d="M 388.480469 765.726562 L 375.074219 768.554688 L 375.222656 769.269531 L 388.480469 766.476562 Z M 388.480469 765.726562 "/>
<path fill-rule="nonzero" fill="#286983" fill-opacity="1" d="M 320.109375 773.410156 L 319.335938 773.410156 L 329.753906 803.570312 L 330.527344 803.570312 Z M 320.109375 773.410156 "/>
<path fill-rule="nonzero" fill="#286983" fill-opacity="1" d="M 394.527344 792.695312 C 393.117188 795.320312 391.464844 797.800781 389.59375 800.089844 L 390.519531 800.089844 C 392.351562 797.792969 393.964844 795.3125 395.347656 792.695312 Z M 394.527344 792.695312 "/>
<path fill-rule="nonzero" fill="#286983" fill-opacity="1" d="M 313.304688 792.855469 L 312.484375 792.855469 C 313.71875 795.175781 315.136719 797.378906 316.726562 799.445312 L 317.640625 799.445312 C 316.015625 797.386719 314.566406 795.179688 313.304688 792.855469 "/>
<path fill-rule="nonzero" fill="#286983" fill-opacity="1" d="M 322.105469 767.289062 L 350.554688 763.949219 L 350.46875 763.222656 L 322.105469 766.554688 Z M 322.105469 767.289062 "/>
<path fill-rule="nonzero" fill="#286983" fill-opacity="1" d="M 320.695312 768.007812 L 320.695312 767.945312 L 320.339844 767.945312 L 320.339844 768.65625 L 357.480469 781.558594 L 357.71875 780.867188 Z M 320.695312 768.007812 "/>
<path fill-rule="nonzero" fill="#907aa9" fill-opacity="1" d="M 357.597656 738.289062 C 357.597656 740.246094 356.011719 741.835938 354.054688 741.835938 C 352.097656 741.835938 350.511719 740.246094 350.511719 738.289062 C 350.511719 736.332031 352.097656 734.746094 354.054688 734.746094 C 356.011719 734.746094 357.597656 736.332031 357.597656 738.289062 "/>
<path fill-rule="nonzero" fill="#907aa9" fill-opacity="1" d="M 339.082031 783.957031 C 339.082031 785.914062 337.492188 787.5 335.535156 787.5 C 333.578125 787.5 331.992188 785.914062 331.992188 783.957031 C 331.992188 782 333.578125 780.414062 335.535156 780.414062 C 337.492188 780.414062 339.082031 782 339.082031 783.957031 "/>
<path fill-rule="nonzero" fill="#907aa9" fill-opacity="1" d="M 362.492188 803.570312 C 361.863281 802.59375 360.769531 801.941406 359.515625 801.941406 C 358.265625 801.941406 357.175781 802.59375 356.542969 803.570312 Z M 362.492188 803.570312 "/>
<path fill-rule="nonzero" fill="#907aa9" fill-opacity="1" d="M 363.0625 782.929688 C 363.0625 784.886719 361.476562 786.472656 359.519531 786.472656 C 357.5625 786.472656 355.972656 784.886719 355.972656 782.929688 C 355.972656 780.972656 357.5625 779.386719 359.519531 779.386719 C 361.476562 779.386719 363.0625 780.972656 363.0625 782.929688 "/>
<path fill-rule="nonzero" fill="#907aa9" fill-opacity="1" d="M 356.5625 763.585938 C 356.5625 765.542969 354.976562 767.128906 353.015625 767.128906 C 351.058594 767.128906 349.472656 765.542969 349.472656 763.585938 C 349.472656 761.628906 351.058594 760.042969 353.015625 760.042969 C 354.976562 760.042969 356.5625 761.628906 356.5625 763.585938 "/>
<path fill-rule="nonzero" fill="#907aa9" fill-opacity="1" d="M 376.691406 768.910156 C 376.691406 770.867188 375.101562 772.457031 373.144531 772.457031 C 371.1875 772.457031 369.601562 770.867188 369.601562 768.910156 C 369.601562 766.953125 371.1875 765.367188 373.144531 765.367188 C 375.101562 765.367188 376.691406 766.953125 376.691406 768.910156 "/>
<path fill-rule="nonzero" fill="#907aa9" fill-opacity="1" d="M 379.644531 753 L 378.195312 753 L 378.195312 749.988281 C 377.007812 750.558594 376.179688 751.761719 376.179688 753.171875 C 376.179688 755.128906 377.765625 756.714844 379.722656 756.714844 C 381.519531 756.714844 382.988281 755.375 383.21875 753.644531 L 379.644531 753.644531 Z M 379.644531 753 "/>
<path fill-rule="nonzero" fill="#907aa9" fill-opacity="1" d="M 389.769531 782.929688 C 389.769531 784.886719 388.179688 786.472656 386.222656 786.472656 C 384.265625 786.472656 382.679688 784.886719 382.679688 782.929688 C 382.679688 780.972656 384.265625 779.386719 386.222656 779.386719 C 388.179688 779.386719 389.769531 780.972656 389.769531 782.929688 "/>
<path fill-rule="nonzero" fill="#286983" fill-opacity="1" d="M 671.398438 800.796875 L 666.277344 800.796875 L 666.277344 838.546875 L 671.398438 838.546875 Z M 666.09375 838.730469 L 671.578125 838.730469 L 671.578125 800.613281 L 666.09375 800.613281 Z M 666.09375 800.613281 L 671.578125 800.613281 L 671.578125 838.730469 L 666.09375 838.730469 Z M 666.09375 800.613281 "/>
<path fill-rule="nonzero" fill="#286983" fill-opacity="1" d="M 691.917969 812.242188 L 697.40625 817.730469 L 697.40625 838.730469 L 691.917969 838.730469 Z M 722.113281 800.679688 L 722.113281 838.558594 L 716.628906 833.070312 L 691.917969 808.359375 L 691.917969 800.601562 L 716.628906 825.3125 L 716.628906 800.679688 Z M 722.113281 800.679688 "/>
<path fill-rule="nonzero" fill="#286983" fill-opacity="1" d="M 756.414062 808.929688 L 761.898438 808.929688 L 761.898438 838.730469 L 756.414062 838.730469 Z M 742.480469 800.699219 L 776.414062 800.699219 L 776.414062 806.183594 L 742.480469 806.183594 Z M 742.480469 800.699219 "/>
<path fill-rule="nonzero" fill="#286983" fill-opacity="1" d="M 802.890625 833.246094 L 831.042969 833.246094 L 831.042969 838.730469 L 797.40625 838.730469 L 797.40625 808.925781 L 802.890625 808.925781 L 802.890625 815.589844 L 827.355469 815.589844 L 827.355469 821.078125 L 802.890625 821.078125 Z M 831.042969 806.179688 L 797.40625 806.179688 L 797.40625 800.695312 L 831.042969 800.695312 Z M 831.042969 806.179688 "/>
<path fill-rule="nonzero" fill="#286983" fill-opacity="1" d="M 873.527344 811.574219 C 875.097656 810.023438 876.257812 808.140625 876.917969 806.070312 L 856.941406 806.070312 L 856.941406 815.480469 L 864.011719 815.480469 C 865.894531 815.480469 867.714844 815.097656 869.394531 814.371094 C 870.917969 813.714844 872.316406 812.773438 873.527344 811.574219 M 886.847656 838.730469 L 880.421875 838.730469 L 869.460938 820.753906 L 869.160156 820.261719 C 869.136719 820.265625 869.113281 820.273438 869.089844 820.28125 C 868.996094 820.308594 868.894531 820.335938 868.796875 820.359375 C 868.765625 820.367188 868.734375 820.375 868.703125 820.382812 C 868.558594 820.421875 868.417969 820.453125 868.273438 820.488281 C 867.949219 820.5625 867.621094 820.628906 867.292969 820.683594 C 867.199219 820.699219 867.105469 820.714844 867.007812 820.730469 C 866.960938 820.738281 866.910156 820.746094 866.859375 820.753906 C 866.734375 820.773438 866.613281 820.789062 866.492188 820.804688 C 866.4375 820.8125 866.386719 820.820312 866.332031 820.824219 C 866.203125 820.839844 866.074219 820.855469 865.941406 820.867188 C 865.785156 820.886719 865.625 820.902344 865.464844 820.910156 C 865.460938 820.910156 865.457031 820.914062 865.449219 820.914062 C 865.300781 820.921875 865.15625 820.933594 865.007812 820.941406 C 864.980469 820.941406 864.957031 820.945312 864.925781 820.945312 C 864.824219 820.949219 864.714844 820.953125 864.605469 820.957031 C 864.539062 820.957031 864.472656 820.960938 864.40625 820.960938 C 864.273438 820.964844 864.144531 820.964844 864.011719 820.964844 L 856.941406 820.964844 L 856.941406 838.730469 L 851.457031 838.730469 L 851.457031 800.585938 L 883.003906 800.585938 C 883.035156 801.027344 883.050781 801.476562 883.050781 801.929688 C 883.050781 803.351562 882.894531 804.738281 882.597656 806.070312 C 881.792969 809.707031 879.945312 812.953125 877.382812 815.480469 C 877.144531 815.714844 876.902344 815.941406 876.652344 816.164062 C 876.566406 816.238281 876.484375 816.3125 876.398438 816.386719 C 876.386719 816.394531 876.378906 816.402344 876.371094 816.414062 C 876.257812 816.503906 876.148438 816.597656 876.035156 816.6875 C 875.957031 816.753906 875.878906 816.816406 875.796875 816.882812 C 875.742188 816.925781 875.679688 816.972656 875.625 817.015625 C 875.414062 817.179688 875.199219 817.335938 874.980469 817.488281 C 874.878906 817.5625 874.777344 817.632812 874.675781 817.703125 C 874.667969 817.707031 874.664062 817.710938 874.65625 817.714844 C 874.558594 817.78125 874.464844 817.84375 874.367188 817.90625 C 874.347656 817.917969 874.335938 817.929688 874.316406 817.9375 C 874.28125 817.960938 874.246094 817.984375 874.210938 818.003906 L 874.871094 819.085938 Z M 886.847656 838.730469 "/>
<path fill-rule="nonzero" fill="#286983" fill-opacity="1" d="M 912.71875 815.589844 L 937.183594 815.589844 L 937.183594 821.078125 L 912.71875 821.078125 L 912.71875 838.730469 L 907.230469 838.730469 L 907.230469 808.921875 L 912.71875 808.921875 Z M 907.230469 800.695312 L 940.867188 800.695312 L 940.867188 806.179688 L 907.230469 806.179688 Z M 907.230469 800.695312 "/>
<path fill-rule="nonzero" fill="#286983" fill-opacity="1" d="M 994.050781 838.730469 L 986.804688 838.730469 L 972.921875 813.648438 L 969.296875 807.105469 L 972.917969 800.558594 L 972.921875 800.554688 L 976.546875 807.105469 Z M 967.5 810.355469 L 971.105469 816.929688 L 959.039062 838.730469 L 951.792969 838.730469 Z M 967.5 810.355469 "/>
<path fill-rule="nonzero" fill="#286983" fill-opacity="1" d="M 1038.210938 825.542969 L 1044.113281 825.542969 C 1041.628906 833.195312 1034.4375 838.730469 1025.957031 838.730469 C 1016.367188 838.730469 1008.425781 831.65625 1007.074219 822.441406 C 1006.9375 821.53125 1006.867188 820.59375 1006.867188 819.644531 C 1006.867188 818.730469 1006.933594 817.832031 1007.058594 816.957031 C 1008.363281 807.6875 1016.328125 800.558594 1025.957031 800.558594 C 1034.652344 800.558594 1041.992188 806.375 1044.289062 814.332031 L 1038.476562 814.332031 C 1036.402344 809.464844 1031.570312 806.042969 1025.957031 806.042969 C 1019.375 806.042969 1013.871094 810.738281 1012.621094 816.957031 C 1012.445312 817.824219 1012.355469 818.722656 1012.355469 819.644531 C 1012.355469 820.601562 1012.457031 821.539062 1012.644531 822.441406 C 1013.9375 828.605469 1019.414062 833.246094 1025.957031 833.246094 C 1031.34375 833.246094 1036.007812 830.097656 1038.210938 825.542969 "/>
<path fill-rule="nonzero" fill="#286983" fill-opacity="1" d="M 1072.03125 833.246094 L 1100.179688 833.246094 L 1100.179688 838.730469 L 1066.542969 838.730469 L 1066.542969 808.925781 L 1072.03125 808.925781 L 1072.03125 815.589844 L 1096.496094 815.589844 L 1096.496094 821.078125 L 1072.03125 821.078125 Z M 1100.179688 806.179688 L 1066.542969 806.179688 L 1066.542969 800.695312 L 1100.179688 800.695312 Z M 1100.179688 806.179688 "/>
<path fill-rule="nonzero" fill="#286983" fill-opacity="1" d="M 1150.910156 822.449219 C 1151.820312 824.039062 1152.34375 825.882812 1152.34375 827.84375 C 1152.34375 829.808594 1151.820312 831.652344 1150.910156 833.246094 C 1149.035156 836.519531 1145.503906 838.730469 1141.457031 838.730469 L 1129.605469 838.730469 C 1125.554688 838.730469 1122.023438 836.519531 1120.140625 833.246094 C 1119.273438 831.730469 1118.757812 829.988281 1118.707031 828.128906 L 1124.195312 828.128906 C 1124.355469 830.976562 1126.71875 833.246094 1129.605469 833.246094 L 1141.457031 833.246094 C 1144.433594 833.246094 1146.855469 830.824219 1146.855469 827.84375 C 1146.855469 824.871094 1144.433594 822.449219 1141.457031 822.449219 L 1129.589844 822.449219 C 1126.527344 822.449219 1123.761719 821.179688 1121.78125 819.144531 C 1121.144531 818.492188 1120.59375 817.757812 1120.136719 816.960938 C 1119.226562 815.371094 1118.707031 813.527344 1118.707031 811.5625 C 1118.707031 809.597656 1119.226562 807.753906 1120.136719 806.164062 C 1122.011719 802.886719 1125.542969 800.675781 1129.589844 800.675781 L 1141.15625 800.675781 C 1141.253906 800.671875 1141.347656 800.671875 1141.441406 800.671875 C 1141.535156 800.671875 1141.628906 800.671875 1141.722656 800.675781 C 1145.65625 800.777344 1149.066406 802.957031 1150.90625 806.15625 C 1150.90625 806.160156 1150.90625 806.164062 1150.910156 806.164062 C 1151.773438 807.675781 1152.292969 809.417969 1152.34375 811.273438 L 1146.851562 811.273438 C 1146.695312 808.492188 1144.4375 806.265625 1141.640625 806.164062 L 1129.589844 806.164062 C 1126.613281 806.164062 1124.191406 808.585938 1124.191406 811.5625 C 1124.191406 814.359375 1126.328125 816.664062 1129.054688 816.933594 C 1129.234375 816.925781 1129.421875 816.917969 1129.605469 816.917969 C 1129.925781 816.917969 1130.242188 816.933594 1130.554688 816.960938 L 1141.457031 816.960938 C 1145.503906 816.960938 1149.035156 819.171875 1150.910156 822.449219 "/>
<path fill-rule="nonzero" fill="#286983" fill-opacity="1" d="M 1242.21875 833.246094 L 1242.21875 838.730469 L 1212.617188 838.730469 L 1212.617188 800.398438 L 1218.105469 800.398438 L 1218.105469 833.246094 Z M 1242.21875 833.246094 "/>
<path fill-rule="nonzero" fill="#286983" fill-opacity="1" d="M 1264.515625 808.929688 L 1270 808.929688 L 1270 838.730469 L 1264.515625 838.730469 Z M 1250.582031 800.699219 L 1284.519531 800.699219 L 1284.519531 806.183594 L 1250.582031 806.183594 Z M 1250.582031 800.699219 "/>
<path fill-rule="nonzero" fill="#286983" fill-opacity="1" d="M 1339.125 819.785156 C 1339.125 820.738281 1339.054688 821.671875 1338.917969 822.585938 C 1337.679688 831.042969 1330.890625 837.695312 1322.367188 838.730469 L 1304.867188 838.730469 L 1304.867188 808.941406 L 1310.355469 808.941406 L 1310.355469 833.246094 L 1322 833.246094 C 1327.652344 832.425781 1332.1875 828.121094 1333.351562 822.585938 C 1333.535156 821.679688 1333.636719 820.746094 1333.636719 819.785156 C 1333.636719 818.867188 1333.546875 817.964844 1333.371094 817.097656 C 1332.703125 813.789062 1330.832031 810.910156 1328.234375 808.941406 C 1326.105469 807.324219 1323.480469 806.324219 1320.632812 806.199219 L 1304.867188 806.199219 L 1304.867188 800.691406 L 1320.253906 800.691406 L 1320.257812 800.699219 C 1329.789062 800.808594 1337.640625 807.898438 1338.933594 817.097656 C 1339.0625 817.972656 1339.125 818.875 1339.125 819.785156 "/>
<path fill-rule="nonzero" fill="#907aa9" fill-opacity="1" d="M 752.222656 729.867188 L 750.304688 735.78125 C 746.625 747.125 739.585938 756.886719 729.945312 764.003906 C 720.105469 771.269531 708.425781 775.109375 696.160156 775.109375 C 682.414062 775.109375 669.144531 770.144531 658.792969 761.128906 C 648.539062 752.195312 641.8125 739.910156 639.847656 726.535156 C 639.441406 723.796875 639.238281 720.992188 639.238281 718.191406 C 639.238281 715.488281 639.425781 712.785156 639.804688 710.183594 C 641.699219 696.722656 648.394531 684.355469 658.667969 675.359375 C 669.039062 666.277344 682.355469 661.269531 696.15625 661.269531 C 708.746094 661.269531 720.671875 665.296875 730.660156 672.914062 C 740.320312 680.285156 747.484375 690.742188 750.839844 702.355469 L 752.503906 708.128906 L 727.542969 708.128906 L 726.371094 705.375 C 721.195312 693.222656 709.335938 685.371094 696.15625 685.371094 C 680.582031 685.371094 667.050781 696.445312 663.972656 711.703125 C 663.546875 713.816406 663.332031 716 663.332031 718.191406 C 663.332031 720.453125 663.566406 722.730469 664.03125 724.945312 C 667.203125 740.046875 680.710938 751.011719 696.152344 751.011719 C 708.664062 751.011719 720.265625 743.710938 725.722656 732.417969 L 726.957031 729.867188 Z M 752.222656 729.867188 "/>
<path fill-rule="nonzero" fill="#907aa9" fill-opacity="1" d="M 865.929688 661.339844 L 860.671875 668.523438 L 823.492188 719.351562 L 822.367188 720.886719 L 822.324219 720.945312 L 822.277344 721 L 822.273438 721.011719 L 821.410156 722.195312 L 821.410156 775.109375 L 797.308594 775.109375 L 797.308594 722.230469 L 796.414062 721.011719 L 796.410156 721 L 796.367188 720.945312 L 796.320312 720.886719 L 795.195312 719.34375 L 758.015625 668.523438 L 752.757812 661.339844 L 782.609375 661.339844 L 783.964844 663.1875 L 809.34375 697.871094 L 834.726562 663.1875 L 836.078125 661.339844 Z M 865.929688 661.339844 "/>
<path fill-rule="nonzero" fill="#907aa9" fill-opacity="1" d="M 907.214844 750.65625 L 953.410156 750.65625 C 957.9375 749.488281 961.179688 745.335938 961.179688 740.625 C 961.179688 735.792969 957.828125 731.609375 953.15625 730.535156 L 907.214844 730.535156 Z M 985.316406 740.625 C 985.316406 746.488281 983.816406 752.28125 980.984375 757.367188 C 974.898438 768.3125 963.34375 775.109375 950.828125 775.109375 C 949.53125 775.109375 948.222656 775.035156 946.917969 774.890625 C 945.617188 775.035156 944.300781 775.109375 943.011719 775.109375 L 883.113281 775.109375 L 883.113281 705.90625 L 945.066406 705.90625 C 949.894531 704.933594 953.363281 700.71875 953.363281 695.75 C 953.363281 691.085938 950.167969 686.957031 945.703125 685.753906 L 907.214844 685.753906 L 907.214844 685.789062 L 883.113281 685.789062 L 883.113281 661.269531 L 943.011719 661.269531 C 955.316406 661.269531 966.769531 667.898438 972.917969 678.566406 C 973.015625 678.730469 973.109375 678.898438 973.199219 679.066406 C 976.011719 684.148438 977.496094 689.917969 977.496094 695.75 C 977.496094 701.640625 975.988281 707.453125 973.125 712.570312 C 973.078125 712.660156 973.03125 712.75 972.976562 712.839844 L 972.953125 712.878906 L 972.945312 712.894531 L 972.941406 712.90625 C 972.773438 713.1875 972.609375 713.46875 972.4375 713.746094 C 972.867188 714.09375 973.285156 714.445312 973.699219 714.804688 C 976.605469 717.386719 979.042969 720.414062 980.941406 723.808594 C 983.804688 728.917969 985.316406 734.734375 985.316406 740.625 "/>
<path fill-rule="nonzero" fill="#907aa9" fill-opacity="1" d="M 1053.519531 685.636719 C 1035.355469 685.636719 1020.578125 700.410156 1020.578125 718.574219 C 1020.578125 736.738281 1035.355469 751.511719 1053.519531 751.511719 C 1071.679688 751.511719 1086.457031 736.738281 1086.457031 718.574219 C 1086.457031 700.414062 1071.679688 685.636719 1053.519531 685.636719 M 1110.050781 718.574219 C 1110.050781 749.746094 1084.691406 775.109375 1053.519531 775.109375 C 1022.34375 775.109375 996.984375 749.746094 996.984375 718.574219 C 996.984375 687.402344 1022.34375 662.039062 1053.519531 662.039062 C 1084.691406 662.039062 1110.050781 687.402344 1110.050781 718.574219 "/>
<path fill-rule="nonzero" fill="#907aa9" fill-opacity="1" d="M 1233.292969 775.109375 L 1205.066406 775.109375 L 1203.746094 772.941406 L 1174.550781 725.070312 C 1173.8125 725.230469 1173.0625 725.371094 1172.34375 725.496094 C 1172.085938 725.542969 1171.800781 725.589844 1171.484375 725.636719 C 1171.347656 725.660156 1171.207031 725.679688 1171.070312 725.703125 L 1171.023438 725.707031 C 1170.664062 725.761719 1170.304688 725.816406 1169.9375 725.855469 C 1169.773438 725.882812 1169.609375 725.902344 1169.445312 725.921875 C 1169.0625 725.96875 1168.679688 726.011719 1168.304688 726.046875 C 1167.867188 726.09375 1167.472656 726.128906 1167.09375 726.160156 L 1166.910156 726.195312 L 1166.664062 726.195312 C 1166.296875 726.21875 1165.925781 726.238281 1165.554688 726.257812 C 1165.46875 726.261719 1165.351562 726.273438 1165.21875 726.273438 C 1164.925781 726.289062 1164.636719 726.300781 1164.339844 726.308594 L 1164.304688 726.308594 L 1164.03125 726.320312 L 1163.75 726.324219 L 1163.703125 726.328125 L 1163.675781 726.328125 C 1163.300781 726.332031 1162.925781 726.339844 1162.550781 726.339844 L 1147.660156 726.339844 L 1147.660156 775.109375 L 1123.558594 775.109375 L 1123.558594 702.238281 L 1162.550781 702.238281 C 1166.953125 702.238281 1171.203125 701.390625 1175.1875 699.71875 C 1175.304688 699.671875 1175.417969 699.621094 1175.535156 699.574219 C 1179.238281 697.964844 1182.59375 695.699219 1185.507812 692.820312 C 1187.71875 690.632812 1189.617188 688.140625 1191.117188 685.445312 L 1175.1875 685.445312 L 1175.1875 685.4375 L 1123.558594 685.4375 L 1123.558594 661.34375 L 1218.902344 661.34375 L 1219.199219 665.546875 C 1219.296875 666.886719 1219.339844 668.238281 1219.339844 669.554688 C 1219.339844 673.734375 1218.882812 677.890625 1217.988281 681.90625 C 1215.625 692.558594 1210.246094 702.269531 1202.4375 709.976562 C 1201.6875 710.714844 1200.96875 711.382812 1200.261719 712.007812 C 1200.015625 712.226562 1199.769531 712.445312 1199.523438 712.65625 C 1199.484375 712.691406 1199.4375 712.726562 1199.398438 712.765625 C 1199.085938 713.027344 1198.769531 713.289062 1198.445312 713.554688 C 1198.207031 713.75 1197.96875 713.945312 1197.726562 714.136719 C 1197.597656 714.242188 1197.460938 714.347656 1197.324219 714.449219 L 1197.199219 714.542969 C 1197.015625 714.691406 1196.824219 714.835938 1196.628906 714.980469 L 1229.105469 768.238281 Z M 1233.292969 775.109375 "/>
<path fill-rule="nonzero" fill="#907aa9" fill-opacity="1" d="M 1339.125 702.761719 L 1339.125 726.871094 L 1339.117188 726.871094 L 1339.117188 775.109375 L 1289.515625 775.109375 C 1274.183594 775.109375 1259.726562 769.3125 1248.824219 758.78125 C 1237.710938 748.0625 1231.589844 733.753906 1231.589844 718.484375 C 1231.589844 703.21875 1237.710938 688.910156 1248.820312 678.195312 C 1259.726562 667.660156 1274.183594 661.863281 1289.515625 661.863281 L 1338.925781 661.863281 L 1338.925781 685.960938 L 1284.53125 685.960938 C 1267.863281 688.3125 1255.339844 702.242188 1255.339844 718.484375 C 1255.339844 734.730469 1267.863281 748.660156 1284.53125 751.011719 L 1315.019531 751.011719 L 1315.019531 726.863281 L 1286.894531 726.863281 L 1285.679688 724.234375 L 1278.726562 709.171875 L 1275.769531 702.761719 Z M 1339.125 702.761719 "/>
<path fill-rule="nonzero" fill="#907aa9" fill-opacity="1" d="M 591.050781 882.242188 L 585.96875 882.242188 L 585.96875 617.761719 L 591.050781 617.761719 Z M 591.050781 882.242188 "/>
<path fill-rule="nonzero" fill="#286983" fill-opacity="1" d="M 354.808594 573.78125 C 291.828125 573.78125 240.585938 625.023438 240.585938 688.007812 C 240.585938 750.992188 291.828125 802.234375 354.808594 802.234375 C 417.792969 802.234375 469.039062 750.992188 469.039062 688.007812 C 469.039062 625.023438 417.792969 573.78125 354.808594 573.78125 M 354.808594 807.144531 C 322.988281 807.144531 293.070312 794.75 270.566406 772.25 C 248.066406 749.746094 235.671875 719.828125 235.671875 688.007812 C 235.671875 656.183594 248.066406 626.265625 270.566406 603.765625 C 293.070312 581.261719 322.988281 568.867188 354.808594 568.867188 C 386.632812 568.867188 416.550781 581.261719 439.054688 603.765625 C 461.554688 626.265625 473.949219 656.183594 473.949219 688.007812 C 473.949219 719.828125 461.554688 749.746094 439.054688 772.25 C 416.550781 794.75 386.632812 807.144531 354.808594 807.144531 "/>
<path fill-rule="nonzero" fill="#286983" fill-opacity="1" d="M 280.011719 697.769531 C 217.027344 697.769531 165.785156 749.007812 165.785156 811.992188 C 165.785156 874.976562 217.027344 926.21875 280.011719 926.21875 C 342.996094 926.21875 394.238281 874.976562 394.238281 811.992188 C 394.238281 749.007812 342.996094 697.769531 280.011719 697.769531 M 280.011719 931.128906 C 248.191406 931.128906 218.273438 918.738281 195.769531 896.238281 C 173.269531 873.734375 160.875 843.816406 160.875 811.992188 C 160.875 780.171875 173.269531 750.253906 195.769531 727.75 C 218.273438 705.25 248.191406 692.855469 280.011719 692.855469 C 311.835938 692.855469 341.753906 705.25 364.253906 727.75 C 386.757812 750.253906 399.148438 780.171875 399.148438 811.992188 C 399.148438 843.816406 386.757812 873.734375 364.253906 896.238281 C 341.753906 918.738281 311.835938 931.128906 280.011719 931.128906 "/>
<path fill-rule="nonzero" fill="#286983" fill-opacity="1" d="M 429.609375 697.769531 C 366.625 697.769531 315.382812 749.007812 315.382812 811.992188 C 315.382812 874.976562 366.625 926.21875 429.609375 926.21875 C 492.59375 926.21875 543.835938 874.976562 543.835938 811.992188 C 543.835938 749.007812 492.59375 697.769531 429.609375 697.769531 M 429.609375 931.128906 C 397.785156 931.128906 367.867188 918.738281 345.367188 896.238281 C 322.863281 873.734375 310.472656 843.816406 310.472656 811.992188 C 310.472656 780.171875 322.863281 750.253906 345.367188 727.75 C 367.867188 705.25 397.785156 692.855469 429.609375 692.855469 C 461.429688 692.855469 491.347656 705.25 513.851562 727.75 C 536.351562 750.253906 548.746094 780.171875 548.746094 811.992188 C 548.746094 843.816406 536.351562 873.734375 513.851562 896.238281 C 491.347656 918.738281 461.429688 931.128906 429.609375 931.128906 "/>
<path fill-rule="nonzero" fill="#907aa9" fill-opacity="1" d="M 345.820312 672.273438 L 345.820312 702.753906 C 341.527344 700.214844 337.054688 697.957031 332.417969 695.996094 C 318.625 690.160156 303.976562 687.203125 288.882812 687.203125 C 288.058594 687.203125 287.238281 687.214844 286.417969 687.230469 L 286.417969 672.273438 C 286.417969 655.867188 299.714844 642.574219 316.117188 642.574219 C 324.324219 642.574219 331.75 645.898438 337.121094 651.269531 C 342.496094 656.644531 345.820312 664.070312 345.820312 672.273438 "/>
<path fill-rule="nonzero" fill="#907aa9" fill-opacity="1" d="M 423.203125 672.273438 L 423.203125 687.230469 C 422.382812 687.214844 421.558594 687.203125 420.738281 687.203125 C 405.644531 687.203125 390.996094 690.160156 377.203125 695.996094 C 372.566406 697.957031 368.09375 700.214844 363.800781 702.753906 L 363.800781 672.273438 C 363.800781 655.867188 377.097656 642.574219 393.503906 642.574219 C 401.707031 642.574219 409.132812 645.898438 414.503906 651.269531 C 419.878906 656.644531 423.203125 664.070312 423.203125 672.273438 "/>
<path fill-rule="nonzero" fill="#907aa9" fill-opacity="1" d="M 328.019531 621.835938 C 328.019531 629.277344 321.984375 635.3125 314.542969 635.3125 C 307.097656 635.3125 301.0625 629.277344 301.0625 621.835938 C 301.0625 614.390625 307.097656 608.355469 314.542969 608.355469 C 321.984375 608.355469 328.019531 614.390625 328.019531 621.835938 "/>
<path fill-rule="nonzero" fill="#907aa9" fill-opacity="1" d="M 408.558594 621.835938 C 408.558594 629.277344 402.523438 635.3125 395.078125 635.3125 C 387.636719 635.3125 381.601562 629.277344 381.601562 621.835938 C 381.601562 614.390625 387.636719 608.355469 395.078125 608.355469 C 402.523438 608.355469 408.558594 614.390625 408.558594 621.835938 "/>
<path fill-rule="evenodd" fill="#907aa9" fill-opacity="1" d="M 432.554688 875.714844 L 432.570312 875.738281 C 432.953125 876.40625 433.464844 876.933594 434.0625 877.300781 L 434.160156 877.351562 C 434.785156 877.710938 435.535156 877.910156 436.347656 877.910156 L 483.777344 877.910156 C 484.59375 877.910156 485.339844 877.710938 485.96875 877.351562 C 486.609375 876.984375 487.152344 876.433594 487.558594 875.730469 L 487.566406 875.714844 C 488.878906 875.945312 490.292969 876.140625 491.738281 876.257812 C 491.5625 876.765625 491.332031 877.261719 491.050781 877.746094 L 491.050781 877.75 C 490.289062 879.078125 489.238281 880.125 487.992188 880.847656 C 486.738281 881.570312 485.304688 881.957031 483.777344 881.957031 L 436.347656 881.957031 C 434.824219 881.957031 433.386719 881.570312 432.132812 880.84375 L 432.015625 880.769531 C 430.824219 880.054688 429.816406 879.027344 429.074219 877.746094 C 428.796875 877.261719 428.566406 876.765625 428.390625 876.257812 C 429.835938 876.140625 431.246094 875.945312 432.554688 875.714844 "/>
<path fill-rule="evenodd" fill="#907aa9" fill-opacity="1" d="M 458.871094 801.207031 C 459.824219 801.207031 460.601562 800.429688 460.601562 799.476562 C 460.601562 798.519531 459.824219 797.746094 458.871094 797.746094 C 457.914062 797.746094 457.140625 798.519531 457.140625 799.476562 C 457.140625 800.429688 457.914062 801.207031 458.871094 801.207031 "/>
<path fill-rule="evenodd" fill="#907aa9" fill-opacity="1" d="M 453.4375 790.261719 C 453.4375 792.871094 455.550781 794.988281 458.164062 794.988281 C 460.777344 794.988281 462.894531 792.871094 462.894531 790.261719 C 462.894531 787.648438 460.777344 785.53125 458.164062 785.53125 C 455.550781 785.53125 453.4375 787.648438 453.4375 790.261719 "/>
<path fill-rule="evenodd" fill="#907aa9" fill-opacity="1" d="M 457.429688 802.867188 C 456.957031 803.257812 456.488281 803.261719 456.015625 802.867188 C 456.402344 803.339844 456.40625 803.808594 456.015625 804.28125 C 456.488281 803.886719 456.957031 803.886719 457.429688 804.28125 C 457.03125 803.808594 457.035156 803.339844 457.429688 802.867188 "/>
<path fill-rule="evenodd" fill="#907aa9" fill-opacity="1" d="M 463.816406 818.058594 C 463.816406 819.109375 462.964844 819.960938 461.914062 819.960938 C 460.863281 819.960938 460.011719 819.109375 460.011719 818.058594 C 460.011719 817.007812 460.863281 816.15625 461.914062 816.15625 C 462.964844 816.15625 463.816406 817.007812 463.816406 818.058594 "/>
<path fill-rule="evenodd" fill="#907aa9" fill-opacity="1" d="M 464.769531 833.371094 C 464.769531 834.324219 463.996094 835.097656 463.039062 835.097656 C 462.082031 835.097656 461.308594 834.324219 461.308594 833.371094 C 461.308594 832.414062 462.082031 831.640625 463.039062 831.640625 C 463.996094 831.640625 464.769531 832.414062 464.769531 833.371094 "/>
<path fill-rule="evenodd" fill="#907aa9" fill-opacity="1" d="M 458.84375 825.714844 C 458.84375 826.359375 458.320312 826.882812 457.675781 826.882812 C 457.03125 826.882812 456.507812 826.359375 456.507812 825.714844 C 456.507812 825.070312 457.03125 824.546875 457.675781 824.546875 C 458.320312 824.546875 458.84375 825.070312 458.84375 825.714844 "/>
<path fill-rule="evenodd" fill="#907aa9" fill-opacity="1" d="M 458.398438 842.441406 C 458.398438 843.398438 457.621094 844.171875 456.667969 844.171875 C 455.710938 844.171875 454.9375 843.398438 454.9375 842.441406 C 454.9375 841.488281 455.710938 840.710938 456.667969 840.710938 C 457.621094 840.710938 458.398438 841.488281 458.398438 842.441406 "/>
<path fill-rule="evenodd" fill="#907aa9" fill-opacity="1" d="M 457.542969 852.359375 C 457.542969 853.480469 456.632812 854.390625 455.511719 854.390625 C 454.386719 854.390625 453.476562 853.480469 453.476562 852.359375 C 453.476562 851.234375 454.386719 850.328125 455.511719 850.328125 C 456.632812 850.328125 457.542969 851.234375 457.542969 852.359375 "/>
<path fill-rule="evenodd" fill="#907aa9" fill-opacity="1" d="M 468.917969 849.179688 C 468.917969 849.957031 468.289062 850.585938 467.511719 850.585938 C 466.738281 850.585938 466.109375 849.957031 466.109375 849.179688 C 466.109375 848.402344 466.738281 847.777344 467.511719 847.777344 C 468.289062 847.777344 468.917969 848.402344 468.917969 849.179688 "/>
<path fill-rule="evenodd" fill="#907aa9" fill-opacity="1" d="M 466.421875 796.652344 C 466.421875 797.113281 466.792969 797.488281 467.257812 797.488281 C 467.71875 797.488281 468.09375 797.113281 468.09375 796.652344 C 468.09375 796.191406 467.71875 795.816406 467.257812 795.816406 C 466.792969 795.816406 466.421875 796.191406 466.421875 796.652344 "/>
<path fill-rule="evenodd" fill="#907aa9" fill-opacity="1" d="M 457.542969 852.359375 C 457.542969 853.480469 456.632812 854.390625 455.511719 854.390625 C 454.386719 854.390625 453.476562 853.480469 453.476562 852.359375 C 453.476562 851.234375 454.386719 850.328125 455.511719 850.328125 C 456.632812 850.328125 457.542969 851.234375 457.542969 852.359375 "/>
<path fill-rule="evenodd" fill="#907aa9" fill-opacity="1" d="M 458.398438 842.441406 C 458.398438 843.398438 457.621094 844.171875 456.667969 844.171875 C 455.710938 844.171875 454.9375 843.398438 454.9375 842.441406 C 454.9375 841.488281 455.710938 840.710938 456.667969 840.710938 C 457.621094 840.710938 458.398438 841.488281 458.398438 842.441406 "/>
<path fill-rule="evenodd" fill="#907aa9" fill-opacity="1" d="M 458.84375 825.714844 C 458.84375 826.359375 458.320312 826.882812 457.675781 826.882812 C 457.03125 826.882812 456.507812 826.359375 456.507812 825.714844 C 456.507812 825.070312 457.03125 824.546875 457.675781 824.546875 C 458.320312 824.546875 458.84375 825.070312 458.84375 825.714844 "/>
<path fill-rule="evenodd" fill="#907aa9" fill-opacity="1" d="M 461.914062 819.960938 C 460.863281 819.960938 460.011719 819.109375 460.011719 818.058594 C 460.011719 817.007812 460.863281 816.15625 461.914062 816.15625 C 462.964844 816.15625 463.816406 817.007812 463.816406 818.058594 C 463.816406 819.109375 462.964844 819.960938 461.914062 819.960938 "/>
<path fill-rule="evenodd" fill="#907aa9" fill-opacity="1" d="M 464.769531 833.371094 C 464.769531 834.324219 463.996094 835.097656 463.039062 835.097656 C 462.082031 835.097656 461.308594 834.324219 461.308594 833.371094 C 461.308594 832.414062 462.082031 831.640625 463.039062 831.640625 C 463.996094 831.640625 464.769531 832.414062 464.769531 833.371094 "/>
<path fill-rule="evenodd" fill="#907aa9" fill-opacity="1" d="M 468.917969 849.179688 C 468.917969 849.957031 468.289062 850.585938 467.511719 850.585938 C 466.738281 850.585938 466.109375 849.957031 466.109375 849.179688 C 466.109375 848.402344 466.738281 847.777344 467.511719 847.777344 C 468.289062 847.777344 468.917969 848.402344 468.917969 849.179688 "/>
<path fill-rule="evenodd" fill="#907aa9" fill-opacity="1" d="M 455.511719 850.328125 C 454.386719 850.328125 453.476562 851.234375 453.476562 852.359375 C 453.476562 853.480469 454.386719 854.390625 455.511719 854.390625 C 456.632812 854.390625 457.542969 853.480469 457.542969 852.359375 C 457.542969 851.234375 456.632812 850.328125 455.511719 850.328125 M 456.667969 840.710938 C 455.710938 840.710938 454.9375 841.484375 454.9375 842.441406 C 454.9375 843.398438 455.710938 844.171875 456.667969 844.171875 C 457.621094 844.171875 458.398438 843.398438 458.398438 842.441406 C 458.398438 841.484375 457.621094 840.710938 456.667969 840.710938 M 457.675781 824.546875 C 457.03125 824.546875 456.507812 825.070312 456.507812 825.714844 C 456.507812 826.359375 457.03125 826.882812 457.675781 826.882812 C 458.320312 826.882812 458.84375 826.359375 458.84375 825.714844 C 458.84375 825.070312 458.320312 824.546875 457.675781 824.546875 M 463.816406 818.058594 C 463.816406 817.007812 462.964844 816.152344 461.914062 816.152344 C 460.863281 816.152344 460.011719 817.007812 460.011719 818.058594 C 460.011719 819.109375 460.863281 819.960938 461.914062 819.960938 C 462.964844 819.960938 463.816406 819.109375 463.816406 818.058594 M 463.039062 831.640625 C 462.082031 831.640625 461.308594 832.414062 461.308594 833.371094 C 461.308594 834.324219 462.082031 835.097656 463.039062 835.097656 C 463.992188 835.097656 464.769531 834.324219 464.769531 833.371094 C 464.769531 832.414062 463.992188 831.640625 463.039062 831.640625 M 468.917969 849.179688 C 468.917969 848.402344 468.289062 847.777344 467.511719 847.777344 C 466.738281 847.777344 466.109375 848.402344 466.109375 849.179688 C 466.109375 849.957031 466.738281 850.585938 467.511719 850.585938 C 468.289062 850.585938 468.917969 849.957031 468.917969 849.179688 M 502.554688 868.777344 C 500.699219 871.984375 494.363281 872.363281 485.609375 870.378906 C 478.996094 868.875 471.101562 866 462.742188 861.933594 C 464.636719 860.9375 466.542969 859.886719 468.457031 858.78125 L 468.460938 858.777344 C 471.5 857.023438 474.414062 855.214844 477.175781 853.375 L 485.535156 867.867188 L 486.148438 868.007812 C 486.996094 868.203125 488.746094 868.554688 490.746094 868.820312 L 480.511719 851.089844 C 482.992188 849.339844 485.328125 847.574219 487.503906 845.8125 C 489.273438 847.292969 490.914062 848.761719 492.421875 850.210938 C 492.1875 850.683594 492.058594 851.210938 492.058594 851.773438 C 492.058594 853.738281 493.652344 855.328125 495.617188 855.328125 C 496.113281 855.328125 496.585938 855.226562 497.019531 855.042969 C 502.03125 860.878906 504.242188 865.851562 502.554688 868.777344 M 452.886719 856.683594 L 452.875 856.679688 C 449.835938 854.925781 446.921875 853.113281 444.167969 851.277344 L 453.753906 834.675781 C 453.941406 834.355469 454.027344 834.007812 454.03125 833.660156 L 454.03125 814.335938 C 454.03125 813.21875 453.125 812.3125 452.007812 812.3125 L 451.683594 812.3125 L 451.683594 810.589844 L 468.445312 810.589844 L 468.445312 812.3125 L 468.121094 812.3125 C 467 812.3125 466.097656 813.21875 466.097656 814.335938 L 466.097656 833.660156 C 466.097656 834.097656 466.234375 834.503906 466.472656 834.835938 L 475.699219 850.824219 L 475.960938 851.277344 C 473.207031 853.113281 470.292969 854.925781 467.25 856.679688 L 467.242188 856.683594 C 464.832031 858.074219 462.433594 859.378906 460.066406 860.59375 C 457.695312 859.378906 455.296875 858.078125 452.886719 856.683594 M 434.519531 870.378906 C 425.765625 872.363281 419.425781 871.984375 417.570312 868.777344 C 415.863281 865.8125 418.160156 860.742188 423.320312 854.800781 C 423.621094 854.898438 423.941406 854.957031 424.277344 854.957031 C 425.902344 854.957031 427.222656 853.636719 427.222656 852.011719 C 427.222656 851.613281 427.144531 851.238281 427.003906 850.894531 C 428.699219 849.226562 430.574219 847.527344 432.621094 845.8125 C 434.796875 847.574219 437.136719 849.339844 439.617188 851.089844 L 429.386719 868.820312 C 431.382812 868.554688 433.128906 868.203125 433.980469 868.007812 L 434.585938 867.871094 L 442.957031 853.375 C 445.71875 855.214844 448.625 857.023438 451.664062 858.777344 L 451.671875 858.78125 C 453.585938 859.886719 455.492188 860.9375 457.382812 861.933594 C 449.027344 866 441.132812 868.875 434.519531 870.378906 M 498.78125 853.394531 C 499.03125 852.90625 499.171875 852.355469 499.171875 851.773438 C 499.171875 849.808594 497.578125 848.214844 495.617188 848.214844 C 495.097656 848.214844 494.601562 848.324219 494.15625 848.527344 C 492.695312 847.117188 491.105469 845.6875 489.398438 844.246094 C 492.386719 841.726562 495.019531 839.230469 497.242188 836.828125 C 504.085938 829.4375 507.097656 822.742188 504.648438 818.503906 C 502.226562 814.304688 495.039062 813.542969 485.355469 815.695312 C 484.9375 815.277344 484.355469 815.015625 483.714844 815.015625 C 482.667969 815.015625 481.785156 815.710938 481.5 816.667969 C 478.683594 817.457031 475.691406 818.449219 472.574219 819.644531 L 472.574219 822.238281 C 475.917969 820.925781 479.125 819.84375 482.121094 819.003906 C 482.539062 819.398438 483.101562 819.640625 483.714844 819.640625 C 484.742188 819.640625 485.609375 818.976562 485.914062 818.050781 C 494.507812 816.140625 500.722656 816.546875 502.554688 819.71875 C 504.40625 822.929688 501.5625 828.605469 495.472656 835.1875 C 493.226562 837.609375 490.550781 840.132812 487.507812 842.683594 C 483.132812 839.144531 478.101562 835.582031 472.574219 832.171875 L 472.574219 832.488281 L 474.902344 836.519531 C 478.78125 839.0625 482.371094 841.664062 485.597656 844.246094 C 483.625 845.828125 481.519531 847.414062 479.296875 848.984375 L 470.144531 833.140625 L 470.144531 816.164062 C 470.648438 815.988281 471.101562 815.703125 471.46875 815.332031 C 472.101562 814.699219 472.492188 813.828125 472.492188 812.863281 L 472.492188 810.035156 C 472.492188 809.070312 472.101562 808.199219 471.46875 807.566406 C 470.835938 806.933594 469.960938 806.539062 468.996094 806.539062 L 465.878906 806.539062 C 466.050781 806.253906 466.148438 805.917969 466.148438 805.5625 C 466.148438 804.511719 465.296875 803.660156 464.246094 803.660156 C 463.195312 803.660156 462.34375 804.511719 462.34375 805.5625 C 462.34375 805.917969 462.441406 806.253906 462.613281 806.539062 L 451.128906 806.539062 C 450.253906 806.539062 449.445312 806.871094 448.828125 807.414062 L 448.660156 807.566406 C 448.027344 808.199219 447.636719 809.070312 447.636719 810.035156 L 447.636719 812.863281 C 447.636719 813.828125 448.027344 814.699219 448.660156 815.332031 L 448.664062 815.332031 C 449.03125 815.699219 449.484375 815.984375 449.984375 816.160156 L 449.984375 833.128906 L 440.832031 848.984375 C 438.609375 847.414062 436.5 845.828125 434.53125 844.246094 C 437.753906 841.664062 441.339844 839.066406 445.222656 836.523438 L 447.558594 832.480469 L 447.558594 832.171875 C 442.03125 835.582031 436.996094 839.144531 432.621094 842.683594 C 429.578125 840.132812 426.898438 837.609375 424.65625 835.1875 C 419.921875 830.070312 417.152344 825.5 417.019531 822.210938 C 418.925781 822.140625 420.445312 820.578125 420.445312 818.65625 C 420.445312 818.296875 420.394531 817.945312 420.292969 817.617188 C 423.332031 816.488281 428.320312 816.714844 434.515625 818.117188 C 438.464844 819.015625 442.871094 820.402344 447.558594 822.238281 L 447.558594 819.644531 C 443.078125 817.929688 438.859375 816.625 435.046875 815.757812 C 428.105469 814.183594 422.421875 814.089844 418.824219 815.671875 C 418.269531 815.308594 417.601562 815.097656 416.890625 815.097656 C 414.925781 815.097656 413.332031 816.691406 413.332031 818.65625 C 413.332031 819.769531 413.847656 820.765625 414.648438 821.417969 C 414.433594 825.527344 417.449219 830.957031 422.886719 836.828125 C 425.109375 839.230469 427.746094 841.726562 430.730469 844.246094 C 428.742188 845.925781 426.910156 847.59375 425.253906 849.226562 C 424.949219 849.121094 424.617188 849.0625 424.277344 849.0625 C 422.648438 849.0625 421.328125 850.382812 421.328125 852.011719 C 421.328125 852.414062 421.410156 852.796875 421.558594 853.148438 C 415.660156 859.949219 413.195312 866.035156 415.480469 869.988281 C 417.921875 874.226562 425.226562 874.96875 435.050781 872.738281 C 442.265625 871.101562 450.941406 867.878906 460.066406 863.304688 C 469.191406 867.878906 477.863281 871.101562 485.078125 872.738281 C 494.902344 874.96875 502.203125 874.226562 504.652344 869.988281 C 506.90625 866.085938 504.527344 860.097656 498.78125 853.394531 "/>
<path fill-rule="nonzero" fill="#907aa9" fill-opacity="1" d="M 223.382812 862.933594 L 268.84375 862.933594 L 268.84375 817.46875 L 223.382812 817.46875 Z M 269.511719 864.273438 L 222.710938 864.273438 C 222.34375 864.273438 222.042969 863.972656 222.042969 863.601562 L 222.042969 816.796875 C 222.042969 816.429688 222.34375 816.128906 222.710938 816.128906 L 269.511719 816.128906 C 269.878906 816.128906 270.179688 816.429688 270.179688 816.796875 L 270.179688 863.601562 C 270.179688 863.972656 269.878906 864.273438 269.511719 864.273438 "/>
<path fill-rule="nonzero" fill="#907aa9" fill-opacity="1" d="M 234.90625 817.46875 C 234.535156 817.46875 234.234375 817.167969 234.234375 816.796875 L 234.234375 815.703125 L 224.128906 805.597656 C 224.003906 805.46875 223.929688 805.300781 223.929688 805.121094 L 223.929688 792.792969 C 223.929688 792.425781 224.230469 792.125 224.601562 792.125 C 224.96875 792.125 225.269531 792.425781 225.269531 792.792969 L 225.269531 804.84375 L 235.378906 814.953125 C 235.503906 815.078125 235.574219 815.25 235.574219 815.425781 L 235.574219 816.796875 C 235.574219 817.167969 235.273438 817.46875 234.90625 817.46875 "/>
<path fill-rule="nonzero" fill="#907aa9" fill-opacity="1" d="M 240.925781 817.46875 C 240.554688 817.46875 240.253906 817.167969 240.253906 816.796875 L 240.253906 814.222656 L 230.0625 804.027344 C 229.9375 803.902344 229.867188 803.734375 229.867188 803.554688 L 229.867188 801.203125 C 229.867188 800.835938 230.164062 800.535156 230.535156 800.535156 C 230.90625 800.535156 231.203125 800.835938 231.203125 801.203125 L 231.203125 803.277344 L 241.398438 813.472656 C 241.523438 813.597656 241.59375 813.769531 241.59375 813.945312 L 241.59375 816.796875 C 241.59375 817.167969 241.292969 817.46875 240.925781 817.46875 "/>
<path fill-rule="nonzero" fill="#907aa9" fill-opacity="1" d="M 233.011719 806.699219 C 232.839844 806.699219 232.667969 806.632812 232.535156 806.503906 C 232.277344 806.242188 232.277344 805.816406 232.535156 805.558594 L 236.628906 801.464844 L 236.628906 796.339844 C 236.628906 795.972656 236.929688 795.671875 237.300781 795.671875 C 237.667969 795.671875 237.96875 795.972656 237.96875 796.339844 L 237.96875 801.738281 C 237.96875 801.917969 237.898438 802.089844 237.773438 802.214844 L 233.484375 806.503906 C 233.351562 806.632812 233.179688 806.699219 233.011719 806.699219 "/>
<path fill-rule="nonzero" fill="#907aa9" fill-opacity="1" d="M 246.039062 817.46875 C 245.667969 817.46875 245.367188 817.167969 245.367188 816.796875 L 245.367188 793.621094 C 245.367188 793.253906 245.667969 792.953125 246.039062 792.953125 C 246.40625 792.953125 246.707031 793.253906 246.707031 793.621094 L 246.707031 816.796875 C 246.707031 817.167969 246.40625 817.46875 246.039062 817.46875 "/>
<path fill-rule="nonzero" fill="#907aa9" fill-opacity="1" d="M 246.039062 811.070312 C 245.867188 811.070312 245.695312 811.003906 245.566406 810.871094 L 241.273438 806.582031 C 241.148438 806.457031 241.078125 806.285156 241.078125 806.109375 L 241.078125 797.449219 C 241.078125 797.082031 241.378906 796.78125 241.75 796.78125 C 242.117188 796.78125 242.417969 797.082031 242.417969 797.449219 L 242.417969 805.832031 L 246.511719 809.925781 C 246.769531 810.1875 246.769531 810.613281 246.511719 810.871094 C 246.382812 811.003906 246.210938 811.070312 246.039062 811.070312 "/>
<path fill-rule="nonzero" fill="#907aa9" fill-opacity="1" d="M 224.601562 789.589844 C 223.902344 789.589844 223.332031 790.15625 223.332031 790.855469 C 223.332031 791.554688 223.902344 792.125 224.601562 792.125 C 225.300781 792.125 225.871094 791.554688 225.871094 790.855469 C 225.871094 790.15625 225.300781 789.589844 224.601562 789.589844 M 224.601562 793.464844 C 223.164062 793.464844 221.996094 792.292969 221.996094 790.855469 C 221.996094 789.417969 223.164062 788.25 224.601562 788.25 C 226.039062 788.25 227.207031 789.417969 227.207031 790.855469 C 227.207031 792.292969 226.039062 793.464844 224.601562 793.464844 "/>
<path fill-rule="nonzero" fill="#907aa9" fill-opacity="1" d="M 237.300781 793.128906 C 236.601562 793.128906 236.03125 793.699219 236.03125 794.402344 C 236.03125 795.101562 236.601562 795.671875 237.300781 795.671875 C 238 795.671875 238.570312 795.101562 238.570312 794.402344 C 238.570312 793.699219 238 793.128906 237.300781 793.128906 M 237.300781 797.007812 C 235.863281 797.007812 234.691406 795.839844 234.691406 794.402344 C 234.691406 792.960938 235.863281 791.789062 237.300781 791.789062 C 238.738281 791.789062 239.90625 792.960938 239.90625 794.402344 C 239.90625 795.839844 238.738281 797.007812 237.300781 797.007812 "/>
<path fill-rule="nonzero" fill="#907aa9" fill-opacity="1" d="M 246.039062 790.410156 C 245.339844 790.410156 244.769531 790.980469 244.769531 791.679688 C 244.769531 792.382812 245.339844 792.953125 246.039062 792.953125 C 246.738281 792.953125 247.308594 792.382812 247.308594 791.679688 C 247.308594 790.980469 246.738281 790.410156 246.039062 790.410156 M 246.039062 794.292969 C 244.601562 794.292969 243.433594 793.121094 243.433594 791.679688 C 243.433594 790.242188 244.601562 789.074219 246.039062 789.074219 C 247.476562 789.074219 248.644531 790.242188 248.644531 791.679688 C 248.644531 793.121094 247.476562 794.292969 246.039062 794.292969 "/>
<path fill-rule="nonzero" fill="#907aa9" fill-opacity="1" d="M 257.308594 817.46875 C 256.941406 817.46875 256.640625 817.167969 256.640625 816.796875 L 256.640625 815.425781 C 256.640625 815.25 256.710938 815.078125 256.839844 814.953125 L 266.953125 804.84375 L 266.953125 792.792969 C 266.953125 792.425781 267.25 792.125 267.621094 792.125 C 267.992188 792.125 268.289062 792.425781 268.289062 792.792969 L 268.289062 805.121094 C 268.289062 805.300781 268.21875 805.46875 268.09375 805.597656 L 257.980469 815.703125 L 257.980469 816.796875 C 257.980469 817.167969 257.679688 817.46875 257.308594 817.46875 "/>
<path fill-rule="nonzero" fill="#907aa9" fill-opacity="1" d="M 251.296875 817.46875 C 250.929688 817.46875 250.628906 817.167969 250.628906 816.796875 L 250.628906 813.945312 C 250.628906 813.769531 250.699219 813.597656 250.824219 813.472656 L 261.011719 803.277344 L 261.011719 801.203125 C 261.011719 800.835938 261.3125 800.535156 261.679688 800.535156 C 262.050781 800.535156 262.351562 800.835938 262.351562 801.203125 L 262.351562 803.554688 C 262.351562 803.734375 262.277344 803.902344 262.152344 804.027344 L 251.964844 814.222656 L 251.964844 816.796875 C 251.964844 817.167969 251.664062 817.46875 251.296875 817.46875 "/>
<path fill-rule="nonzero" fill="#907aa9" fill-opacity="1" d="M 259.207031 806.699219 C 259.035156 806.699219 258.863281 806.632812 258.730469 806.503906 L 254.449219 802.214844 C 254.324219 802.085938 254.253906 801.917969 254.253906 801.738281 L 254.253906 796.339844 C 254.253906 795.972656 254.554688 795.671875 254.921875 795.671875 C 255.292969 795.671875 255.589844 795.972656 255.589844 796.339844 L 255.589844 801.464844 L 259.679688 805.558594 C 259.941406 805.820312 259.941406 806.242188 259.679688 806.503906 C 259.546875 806.632812 259.378906 806.699219 259.207031 806.699219 "/>
<path fill-rule="nonzero" fill="#907aa9" fill-opacity="1" d="M 267.621094 789.589844 C 266.917969 789.589844 266.347656 790.15625 266.347656 790.855469 C 266.347656 791.554688 266.917969 792.125 267.621094 792.125 C 268.320312 792.125 268.890625 791.554688 268.890625 790.855469 C 268.890625 790.15625 268.320312 789.589844 267.621094 789.589844 M 267.621094 793.464844 C 266.179688 793.464844 265.007812 792.292969 265.007812 790.855469 C 265.007812 789.417969 266.179688 788.25 267.621094 788.25 C 269.058594 788.25 270.226562 789.417969 270.226562 790.855469 C 270.226562 792.292969 269.058594 793.464844 267.621094 793.464844 "/>
<path fill-rule="nonzero" fill="#907aa9" fill-opacity="1" d="M 254.921875 793.128906 C 254.21875 793.128906 253.648438 793.699219 253.648438 794.402344 C 253.648438 795.101562 254.21875 795.671875 254.921875 795.671875 C 255.621094 795.671875 256.191406 795.101562 256.191406 794.402344 C 256.191406 793.699219 255.621094 793.128906 254.921875 793.128906 M 254.921875 797.007812 C 253.480469 797.007812 252.308594 795.839844 252.308594 794.402344 C 252.308594 792.960938 253.480469 791.789062 254.921875 791.789062 C 256.359375 791.789062 257.527344 792.960938 257.527344 794.402344 C 257.527344 795.839844 256.359375 797.007812 254.921875 797.007812 "/>
<path fill-rule="nonzero" fill="#907aa9" fill-opacity="1" d="M 285.105469 856.441406 L 282.757812 856.441406 C 282.582031 856.441406 282.410156 856.371094 282.285156 856.246094 L 272.089844 846.050781 L 269.511719 846.050781 C 269.140625 846.050781 268.839844 845.753906 268.839844 845.382812 C 268.839844 845.015625 269.140625 844.714844 269.511719 844.714844 L 272.371094 844.714844 C 272.546875 844.714844 272.714844 844.785156 272.839844 844.910156 L 283.035156 855.105469 L 285.105469 855.105469 C 285.472656 855.105469 285.773438 855.402344 285.773438 855.773438 C 285.773438 856.140625 285.472656 856.441406 285.105469 856.441406 "/>
<path fill-rule="nonzero" fill="#907aa9" fill-opacity="1" d="M 280.285156 853.96875 C 280.113281 853.96875 279.941406 853.902344 279.8125 853.773438 C 279.550781 853.511719 279.550781 853.085938 279.8125 852.824219 L 284.09375 848.535156 C 284.21875 848.410156 284.390625 848.339844 284.566406 848.339844 L 289.96875 848.339844 C 290.335938 848.339844 290.636719 848.640625 290.636719 849.007812 C 290.636719 849.378906 290.335938 849.679688 289.96875 849.679688 L 284.847656 849.679688 L 280.757812 853.773438 C 280.628906 853.902344 280.457031 853.96875 280.285156 853.96875 "/>
<path fill-rule="nonzero" fill="#907aa9" fill-opacity="1" d="M 292.691406 840.941406 L 269.511719 840.941406 C 269.140625 840.941406 268.839844 840.640625 268.839844 840.269531 C 268.839844 839.902344 269.140625 839.601562 269.511719 839.601562 L 292.691406 839.601562 C 293.058594 839.601562 293.359375 839.902344 293.359375 840.269531 C 293.359375 840.640625 293.058594 840.941406 292.691406 840.941406 "/>
<path fill-rule="nonzero" fill="#907aa9" fill-opacity="1" d="M 288.859375 845.230469 L 280.199219 845.230469 C 280.019531 845.230469 279.851562 845.160156 279.726562 845.03125 L 275.433594 840.742188 C 275.175781 840.480469 275.175781 840.058594 275.433594 839.796875 C 275.699219 839.535156 276.121094 839.535156 276.382812 839.796875 L 280.476562 843.890625 L 288.859375 843.890625 C 289.226562 843.890625 289.527344 844.191406 289.527344 844.5625 C 289.527344 844.929688 289.226562 845.230469 288.859375 845.230469 "/>
<path fill-rule="nonzero" fill="#907aa9" fill-opacity="1" d="M 291.90625 847.738281 C 291.207031 847.738281 290.636719 848.308594 290.636719 849.007812 C 290.636719 849.710938 291.207031 850.28125 291.90625 850.28125 C 292.605469 850.28125 293.179688 849.710938 293.179688 849.007812 C 293.179688 848.308594 292.605469 847.738281 291.90625 847.738281 M 291.90625 851.621094 C 290.46875 851.621094 289.296875 850.449219 289.296875 849.007812 C 289.296875 847.570312 290.46875 846.402344 291.90625 846.402344 C 293.34375 846.402344 294.515625 847.570312 294.515625 849.007812 C 294.515625 850.449219 293.34375 851.621094 291.90625 851.621094 "/>
<path fill-rule="nonzero" fill="#907aa9" fill-opacity="1" d="M 294.628906 839 C 293.929688 839 293.359375 839.570312 293.359375 840.269531 C 293.359375 840.972656 293.929688 841.546875 294.628906 841.546875 C 295.328125 841.546875 295.898438 840.972656 295.898438 840.269531 C 295.898438 839.570312 295.328125 839 294.628906 839 M 294.628906 842.882812 C 293.191406 842.882812 292.023438 841.710938 292.023438 840.269531 C 292.023438 838.832031 293.191406 837.664062 294.628906 837.664062 C 296.066406 837.664062 297.234375 838.832031 297.234375 840.269531 C 297.234375 841.710938 296.066406 842.882812 294.628906 842.882812 "/>
<path fill-rule="nonzero" fill="#907aa9" fill-opacity="1" d="M 272.367188 835.6875 L 269.511719 835.6875 C 269.140625 835.6875 268.84375 835.386719 268.84375 835.015625 C 268.84375 834.648438 269.140625 834.347656 269.511719 834.347656 L 272.09375 834.347656 L 282.285156 824.15625 C 282.410156 824.03125 282.582031 823.960938 282.757812 823.960938 L 285.105469 823.960938 C 285.472656 823.960938 285.773438 824.257812 285.773438 824.628906 C 285.773438 824.996094 285.472656 825.296875 285.105469 825.296875 L 283.035156 825.296875 L 272.84375 835.492188 C 272.71875 835.617188 272.546875 835.6875 272.367188 835.6875 "/>
<path fill-rule="nonzero" fill="#907aa9" fill-opacity="1" d="M 289.96875 832.0625 L 284.570312 832.0625 C 284.390625 832.0625 284.21875 831.988281 284.09375 831.863281 L 279.8125 827.574219 C 279.550781 827.3125 279.550781 826.890625 279.8125 826.628906 C 280.074219 826.367188 280.496094 826.367188 280.757812 826.628906 L 284.847656 830.722656 L 289.96875 830.722656 C 290.335938 830.722656 290.636719 831.023438 290.636719 831.390625 C 290.636719 831.761719 290.335938 832.0625 289.96875 832.0625 "/>
<path fill-rule="nonzero" fill="#907aa9" fill-opacity="1" d="M 291.90625 830.117188 C 291.207031 830.117188 290.636719 830.6875 290.636719 831.390625 C 290.636719 832.09375 291.207031 832.660156 291.90625 832.660156 C 292.605469 832.660156 293.179688 832.09375 293.179688 831.390625 C 293.179688 830.6875 292.605469 830.117188 291.90625 830.117188 M 291.90625 834 C 290.46875 834 289.296875 832.828125 289.296875 831.390625 C 289.296875 829.953125 290.46875 828.777344 291.90625 828.777344 C 293.34375 828.777344 294.515625 829.953125 294.515625 831.390625 C 294.515625 832.828125 293.34375 834 291.90625 834 "/>
<path fill-rule="nonzero" fill="#907aa9" fill-opacity="1" d="M 229.949219 823.597656 L 228.835938 823.597656 C 228.464844 823.597656 228.167969 823.296875 228.167969 822.925781 C 228.167969 822.558594 228.464844 822.257812 228.835938 822.257812 L 229.949219 822.257812 C 230.320312 822.257812 230.621094 822.558594 230.621094 822.925781 C 230.621094 823.296875 230.320312 823.597656 229.949219 823.597656 M 235.078125 823.597656 L 233.964844 823.597656 C 233.59375 823.597656 233.296875 823.296875 233.296875 822.925781 C 233.296875 822.558594 233.59375 822.257812 233.964844 822.257812 L 235.078125 822.257812 C 235.449219 822.257812 235.746094 822.558594 235.746094 822.925781 C 235.746094 823.296875 235.449219 823.597656 235.078125 823.597656 M 240.207031 823.597656 L 239.09375 823.597656 C 238.722656 823.597656 238.421875 823.296875 238.421875 822.925781 C 238.421875 822.558594 238.722656 822.257812 239.09375 822.257812 L 240.207031 822.257812 C 240.578125 822.257812 240.875 822.558594 240.875 822.925781 C 240.875 823.296875 240.578125 823.597656 240.207031 823.597656 M 245.335938 823.597656 L 244.21875 823.597656 C 243.851562 823.597656 243.550781 823.296875 243.550781 822.925781 C 243.550781 822.558594 243.851562 822.257812 244.21875 822.257812 L 245.335938 822.257812 C 245.703125 822.257812 246.003906 822.558594 246.003906 822.925781 C 246.003906 823.296875 245.703125 823.597656 245.335938 823.597656 M 250.464844 823.597656 L 249.347656 823.597656 C 248.976562 823.597656 248.679688 823.296875 248.679688 822.925781 C 248.679688 822.558594 248.976562 822.257812 249.347656 822.257812 L 250.464844 822.257812 C 250.832031 822.257812 251.132812 822.558594 251.132812 822.925781 C 251.132812 823.296875 250.832031 823.597656 250.464844 823.597656 M 255.589844 823.597656 L 254.476562 823.597656 C 254.105469 823.597656 253.808594 823.296875 253.808594 822.925781 C 253.808594 822.558594 254.105469 822.257812 254.476562 822.257812 L 255.589844 822.257812 C 255.960938 822.257812 256.261719 822.558594 256.261719 822.925781 C 256.261719 823.296875 255.960938 823.597656 255.589844 823.597656 M 260.71875 823.597656 L 259.605469 823.597656 C 259.234375 823.597656 258.933594 823.296875 258.933594 822.925781 C 258.933594 822.558594 259.234375 822.257812 259.605469 822.257812 L 260.71875 822.257812 C 261.089844 822.257812 261.386719 822.558594 261.386719 822.925781 C 261.386719 823.296875 261.089844 823.597656 260.71875 823.597656 M 263.382812 826.066406 C 263.011719 826.066406 262.710938 825.765625 262.710938 825.394531 L 262.710938 824.28125 C 262.710938 823.910156 263.011719 823.613281 263.382812 823.613281 C 263.75 823.613281 264.050781 823.910156 264.050781 824.28125 L 264.050781 825.394531 C 264.050781 825.765625 263.75 826.066406 263.382812 826.066406 M 228.835938 828.445312 C 228.464844 828.445312 228.167969 828.144531 228.167969 827.773438 L 228.167969 826.660156 C 228.167969 826.289062 228.464844 825.992188 228.835938 825.992188 C 229.207031 825.992188 229.503906 826.289062 229.503906 826.660156 L 229.503906 827.773438 C 229.503906 828.144531 229.207031 828.445312 228.835938 828.445312 M 263.382812 831.191406 C 263.011719 831.191406 262.710938 830.894531 262.710938 830.523438 L 262.710938 829.410156 C 262.710938 829.039062 263.011719 828.738281 263.382812 828.738281 C 263.75 828.738281 264.050781 829.039062 264.050781 829.410156 L 264.050781 830.523438 C 264.050781 830.894531 263.75 831.191406 263.382812 831.191406 M 228.835938 833.570312 C 228.464844 833.570312 228.167969 833.273438 228.167969 832.902344 L 228.167969 831.789062 C 228.167969 831.417969 228.464844 831.117188 228.835938 831.117188 C 229.207031 831.117188 229.503906 831.417969 229.503906 831.789062 L 229.503906 832.902344 C 229.503906 833.273438 229.207031 833.570312 228.835938 833.570312 M 263.382812 836.320312 C 263.011719 836.320312 262.710938 836.019531 262.710938 835.652344 L 262.710938 834.535156 C 262.710938 834.167969 263.011719 833.867188 263.382812 833.867188 C 263.75 833.867188 264.050781 834.167969 264.050781 834.535156 L 264.050781 835.652344 C 264.050781 836.019531 263.75 836.320312 263.382812 836.320312 M 228.835938 838.699219 C 228.464844 838.699219 228.167969 838.402344 228.167969 838.03125 L 228.167969 836.914062 C 228.167969 836.546875 228.464844 836.246094 228.835938 836.246094 C 229.207031 836.246094 229.503906 836.546875 229.503906 836.914062 L 229.503906 838.03125 C 229.503906 838.402344 229.207031 838.699219 228.835938 838.699219 M 263.382812 841.449219 C 263.011719 841.449219 262.710938 841.148438 262.710938 840.78125 L 262.710938 839.664062 C 262.710938 839.296875 263.011719 838.996094 263.382812 838.996094 C 263.75 838.996094 264.050781 839.296875 264.050781 839.664062 L 264.050781 840.78125 C 264.050781 841.148438 263.75 841.449219 263.382812 841.449219 M 228.835938 843.828125 C 228.464844 843.828125 228.167969 843.527344 228.167969 843.160156 L 228.167969 842.042969 C 228.167969 841.675781 228.464844 841.375 228.835938 841.375 C 229.207031 841.375 229.503906 841.675781 229.503906 842.042969 L 229.503906 843.160156 C 229.503906 843.527344 229.207031 843.828125 228.835938 843.828125 M 263.382812 846.578125 C 263.011719 846.578125 262.710938 846.277344 262.710938 845.910156 L 262.710938 844.792969 C 262.710938 844.421875 263.011719 844.125 263.382812 844.125 C 263.75 844.125 264.050781 844.421875 264.050781 844.792969 L 264.050781 845.910156 C 264.050781 846.277344 263.75 846.578125 263.382812 846.578125 M 228.835938 848.957031 C 228.464844 848.957031 228.167969 848.65625 228.167969 848.285156 L 228.167969 847.171875 C 228.167969 846.800781 228.464844 846.503906 228.835938 846.503906 C 229.207031 846.503906 229.503906 846.800781 229.503906 847.171875 L 229.503906 848.285156 C 229.503906 848.65625 229.207031 848.957031 228.835938 848.957031 M 263.382812 851.703125 C 263.011719 851.703125 262.710938 851.40625 262.710938 851.035156 L 262.710938 849.921875 C 262.710938 849.550781 263.011719 849.253906 263.382812 849.253906 C 263.75 849.253906 264.050781 849.550781 264.050781 849.921875 L 264.050781 851.035156 C 264.050781 851.40625 263.75 851.703125 263.382812 851.703125 M 228.835938 854.085938 C 228.464844 854.085938 228.167969 853.785156 228.167969 853.414062 L 228.167969 852.300781 C 228.167969 851.929688 228.464844 851.632812 228.835938 851.632812 C 229.207031 851.632812 229.503906 851.929688 229.503906 852.300781 L 229.503906 853.414062 C 229.503906 853.785156 229.207031 854.085938 228.835938 854.085938 M 263.382812 856.832031 C 263.011719 856.832031 262.710938 856.535156 262.710938 856.164062 L 262.710938 855.050781 C 262.710938 854.679688 263.011719 854.378906 263.382812 854.378906 C 263.75 854.378906 264.050781 854.679688 264.050781 855.050781 L 264.050781 856.164062 C 264.050781 856.535156 263.75 856.832031 263.382812 856.832031 M 229.90625 858.140625 L 228.835938 858.140625 C 228.464844 858.140625 228.167969 857.84375 228.167969 857.472656 L 228.167969 857.429688 C 228.167969 857.058594 228.464844 856.761719 228.835938 856.761719 C 228.921875 856.761719 229 856.777344 229.074219 856.804688 L 229.90625 856.804688 C 230.273438 856.804688 230.574219 857.105469 230.574219 857.472656 C 230.574219 857.84375 230.273438 858.140625 229.90625 858.140625 M 235.035156 858.140625 L 233.921875 858.140625 C 233.550781 858.140625 233.25 857.84375 233.25 857.472656 C 233.25 857.105469 233.550781 856.804688 233.921875 856.804688 L 235.035156 856.804688 C 235.402344 856.804688 235.703125 857.105469 235.703125 857.472656 C 235.703125 857.84375 235.402344 858.140625 235.035156 858.140625 M 240.164062 858.140625 L 239.046875 858.140625 C 238.679688 858.140625 238.378906 857.84375 238.378906 857.472656 C 238.378906 857.105469 238.679688 856.804688 239.046875 856.804688 L 240.164062 856.804688 C 240.53125 856.804688 240.832031 857.105469 240.832031 857.472656 C 240.832031 857.84375 240.53125 858.140625 240.164062 858.140625 M 245.292969 858.140625 L 244.175781 858.140625 C 243.804688 858.140625 243.507812 857.84375 243.507812 857.472656 C 243.507812 857.105469 243.804688 856.804688 244.175781 856.804688 L 245.292969 856.804688 C 245.660156 856.804688 245.960938 857.105469 245.960938 857.472656 C 245.960938 857.84375 245.660156 858.140625 245.292969 858.140625 M 250.417969 858.140625 L 249.304688 858.140625 C 248.933594 858.140625 248.636719 857.84375 248.636719 857.472656 C 248.636719 857.105469 248.933594 856.804688 249.304688 856.804688 L 250.417969 856.804688 C 250.789062 856.804688 251.089844 857.105469 251.089844 857.472656 C 251.089844 857.84375 250.789062 858.140625 250.417969 858.140625 M 255.546875 858.140625 L 254.433594 858.140625 C 254.0625 858.140625 253.761719 857.84375 253.761719 857.472656 C 253.761719 857.105469 254.0625 856.804688 254.433594 856.804688 L 255.546875 856.804688 C 255.917969 856.804688 256.214844 857.105469 256.214844 857.472656 C 256.214844 857.84375 255.917969 858.140625 255.546875 858.140625 M 260.675781 858.140625 L 259.558594 858.140625 C 259.191406 858.140625 258.890625 857.84375 258.890625 857.472656 C 258.890625 857.105469 259.191406 856.804688 259.558594 856.804688 L 260.675781 856.804688 C 261.046875 856.804688 261.34375 857.105469 261.34375 857.472656 C 261.34375 857.84375 261.046875 858.140625 260.675781 858.140625 "/>
<path fill-rule="nonzero" fill="#907aa9" fill-opacity="1" d="M 246.109375 833.546875 C 242.441406 833.546875 239.457031 836.535156 239.457031 840.203125 C 239.457031 843.871094 242.441406 846.851562 246.109375 846.851562 C 249.777344 846.851562 252.761719 843.871094 252.761719 840.203125 C 252.761719 836.535156 249.777344 833.546875 246.109375 833.546875 M 246.109375 848.191406 C 241.703125 848.191406 238.117188 844.609375 238.117188 840.203125 C 238.117188 835.796875 241.703125 832.210938 246.109375 832.210938 C 250.515625 832.210938 254.097656 835.796875 254.097656 840.203125 C 254.097656 844.609375 250.515625 848.191406 246.109375 848.191406 "/>
<path fill-rule="nonzero" fill="#907aa9" fill-opacity="1" d="M 209.464844 856.441406 L 207.117188 856.441406 C 206.746094 856.441406 206.449219 856.140625 206.449219 855.773438 C 206.449219 855.402344 206.746094 855.105469 207.117188 855.105469 L 209.1875 855.105469 L 219.382812 844.910156 C 219.507812 844.785156 219.675781 844.714844 219.855469 844.714844 L 222.710938 844.714844 C 223.082031 844.714844 223.382812 845.015625 223.382812 845.382812 C 223.382812 845.753906 223.082031 846.050781 222.710938 846.050781 L 220.132812 846.050781 L 209.9375 856.246094 C 209.8125 856.371094 209.640625 856.441406 209.464844 856.441406 "/>
<path fill-rule="nonzero" fill="#907aa9" fill-opacity="1" d="M 211.9375 853.96875 C 211.765625 853.96875 211.59375 853.902344 211.464844 853.773438 L 207.371094 849.679688 L 202.25 849.679688 C 201.878906 849.679688 201.582031 849.378906 201.582031 849.007812 C 201.582031 848.640625 201.878906 848.339844 202.25 848.339844 L 207.648438 848.339844 C 207.824219 848.339844 207.996094 848.410156 208.121094 848.535156 L 212.410156 852.824219 C 212.671875 853.085938 212.671875 853.511719 212.410156 853.773438 C 212.28125 853.902344 212.109375 853.96875 211.9375 853.96875 "/>
<path fill-rule="nonzero" fill="#907aa9" fill-opacity="1" d="M 222.710938 840.941406 L 199.53125 840.941406 C 199.160156 840.941406 198.863281 840.640625 198.863281 840.269531 C 198.863281 839.902344 199.160156 839.601562 199.53125 839.601562 L 222.710938 839.601562 C 223.082031 839.601562 223.382812 839.902344 223.382812 840.269531 C 223.382812 840.640625 223.082031 840.941406 222.710938 840.941406 "/>
<path fill-rule="nonzero" fill="#907aa9" fill-opacity="1" d="M 212.015625 845.230469 L 203.363281 845.230469 C 202.996094 845.230469 202.695312 844.929688 202.695312 844.5625 C 202.695312 844.191406 202.996094 843.890625 203.363281 843.890625 L 211.742188 843.890625 L 215.832031 839.796875 C 216.09375 839.535156 216.519531 839.535156 216.78125 839.796875 C 217.039062 840.058594 217.039062 840.480469 216.78125 840.742188 L 212.492188 845.03125 C 212.363281 845.160156 212.195312 845.230469 212.015625 845.230469 "/>
<path fill-rule="nonzero" fill="#907aa9" fill-opacity="1" d="M 200.308594 847.738281 C 199.613281 847.738281 199.042969 848.308594 199.042969 849.007812 C 199.042969 849.710938 199.613281 850.28125 200.308594 850.28125 C 201.011719 850.28125 201.582031 849.710938 201.582031 849.007812 C 201.582031 848.308594 201.011719 847.738281 200.308594 847.738281 M 200.308594 851.621094 C 198.875 851.621094 197.703125 850.449219 197.703125 849.007812 C 197.703125 847.570312 198.875 846.402344 200.308594 846.402344 C 201.746094 846.402344 202.917969 847.570312 202.917969 849.007812 C 202.917969 850.449219 201.746094 851.621094 200.308594 851.621094 "/>
<path fill-rule="nonzero" fill="#907aa9" fill-opacity="1" d="M 197.59375 839 C 196.890625 839 196.320312 839.570312 196.320312 840.269531 C 196.320312 840.972656 196.890625 841.546875 197.59375 841.546875 C 198.292969 841.546875 198.863281 840.972656 198.863281 840.269531 C 198.863281 839.570312 198.292969 839 197.59375 839 M 197.59375 842.882812 C 196.152344 842.882812 194.980469 841.710938 194.980469 840.269531 C 194.980469 838.832031 196.152344 837.664062 197.59375 837.664062 C 199.03125 837.664062 200.199219 838.832031 200.199219 840.269531 C 200.199219 841.710938 199.03125 842.882812 197.59375 842.882812 "/>
<path fill-rule="nonzero" fill="#907aa9" fill-opacity="1" d="M 222.710938 835.6875 L 219.855469 835.6875 C 219.675781 835.6875 219.507812 835.617188 219.382812 835.492188 L 209.1875 825.296875 L 207.117188 825.296875 C 206.746094 825.296875 206.449219 824.996094 206.449219 824.628906 C 206.449219 824.257812 206.746094 823.960938 207.117188 823.960938 L 209.464844 823.960938 C 209.640625 823.960938 209.8125 824.03125 209.9375 824.15625 L 220.132812 834.347656 L 222.710938 834.347656 C 223.082031 834.347656 223.382812 834.648438 223.382812 835.015625 C 223.382812 835.386719 223.082031 835.6875 222.710938 835.6875 "/>
<path fill-rule="nonzero" fill="#907aa9" fill-opacity="1" d="M 207.648438 832.0625 L 202.25 832.0625 C 201.878906 832.0625 201.582031 831.761719 201.582031 831.390625 C 201.582031 831.023438 201.878906 830.722656 202.25 830.722656 L 207.371094 830.722656 L 211.464844 826.628906 C 211.726562 826.367188 212.148438 826.367188 212.410156 826.628906 C 212.671875 826.890625 212.671875 827.3125 212.410156 827.574219 L 208.121094 831.863281 C 207.996094 831.988281 207.824219 832.0625 207.648438 832.0625 "/>
<path fill-rule="nonzero" fill="#907aa9" fill-opacity="1" d="M 200.308594 830.117188 C 199.613281 830.117188 199.042969 830.6875 199.042969 831.390625 C 199.042969 832.09375 199.613281 832.660156 200.308594 832.660156 C 201.011719 832.660156 201.582031 832.09375 201.582031 831.390625 C 201.582031 830.6875 201.011719 830.117188 200.308594 830.117188 M 200.308594 834 C 198.875 834 197.703125 832.828125 197.703125 831.390625 C 197.703125 829.953125 198.875 828.777344 200.308594 828.777344 C 201.746094 828.777344 202.917969 829.953125 202.917969 831.390625 C 202.917969 832.828125 201.746094 834 200.308594 834 "/>
<path fill-rule="nonzero" fill="#907aa9" fill-opacity="1" d="M 224.601562 888.277344 C 224.230469 888.277344 223.929688 887.976562 223.929688 887.605469 L 223.929688 875.277344 C 223.929688 875.101562 224 874.929688 224.125 874.804688 L 234.238281 864.699219 L 234.238281 863.601562 C 234.238281 863.234375 234.535156 862.933594 234.90625 862.933594 C 235.273438 862.933594 235.574219 863.234375 235.574219 863.601562 L 235.574219 864.972656 C 235.574219 865.152344 235.503906 865.320312 235.378906 865.449219 L 225.269531 875.554688 L 225.269531 887.605469 C 225.269531 887.976562 224.96875 888.277344 224.601562 888.277344 "/>
<path fill-rule="nonzero" fill="#907aa9" fill-opacity="1" d="M 230.535156 879.867188 C 230.167969 879.867188 229.867188 879.566406 229.867188 879.195312 L 229.867188 876.84375 C 229.867188 876.667969 229.9375 876.496094 230.0625 876.371094 L 240.257812 866.175781 L 240.257812 863.601562 C 240.257812 863.234375 240.554688 862.933594 240.925781 862.933594 C 241.296875 862.933594 241.59375 863.234375 241.59375 863.601562 L 241.59375 866.453125 C 241.59375 866.632812 241.523438 866.800781 241.398438 866.925781 L 231.203125 877.121094 L 231.203125 879.195312 C 231.203125 879.566406 230.90625 879.867188 230.535156 879.867188 "/>
<path fill-rule="nonzero" fill="#907aa9" fill-opacity="1" d="M 237.300781 884.726562 C 236.929688 884.726562 236.628906 884.429688 236.628906 884.058594 L 236.628906 878.9375 L 232.535156 874.84375 C 232.277344 874.582031 232.277344 874.160156 232.535156 873.898438 C 232.796875 873.636719 233.222656 873.636719 233.484375 873.898438 L 237.773438 878.1875 C 237.898438 878.3125 237.96875 878.484375 237.96875 878.660156 L 237.96875 884.058594 C 237.96875 884.429688 237.667969 884.726562 237.300781 884.726562 "/>
<path fill-rule="nonzero" fill="#907aa9" fill-opacity="1" d="M 246.039062 887.445312 C 245.667969 887.445312 245.367188 887.148438 245.367188 886.777344 L 245.367188 863.601562 C 245.367188 863.234375 245.667969 862.933594 246.039062 862.933594 C 246.40625 862.933594 246.707031 863.234375 246.707031 863.601562 L 246.707031 886.777344 C 246.707031 887.148438 246.40625 887.445312 246.039062 887.445312 "/>
<path fill-rule="nonzero" fill="#907aa9" fill-opacity="1" d="M 241.746094 883.617188 C 241.378906 883.617188 241.078125 883.320312 241.078125 882.949219 L 241.078125 874.292969 C 241.078125 874.113281 241.148438 873.945312 241.273438 873.820312 L 245.5625 869.527344 C 245.824219 869.265625 246.25 869.265625 246.511719 869.527344 C 246.769531 869.789062 246.769531 870.214844 246.511719 870.472656 L 242.417969 874.566406 L 242.417969 882.949219 C 242.417969 883.320312 242.117188 883.617188 241.746094 883.617188 "/>
<path fill-rule="nonzero" fill="#907aa9" fill-opacity="1" d="M 224.601562 888.277344 C 223.902344 888.277344 223.332031 888.84375 223.332031 889.542969 C 223.332031 890.242188 223.902344 890.8125 224.601562 890.8125 C 225.300781 890.8125 225.871094 890.242188 225.871094 889.542969 C 225.871094 888.84375 225.300781 888.277344 224.601562 888.277344 M 224.601562 892.152344 C 223.164062 892.152344 221.996094 890.980469 221.996094 889.542969 C 221.996094 888.105469 223.164062 886.9375 224.601562 886.9375 C 226.039062 886.9375 227.207031 888.105469 227.207031 889.542969 C 227.207031 890.980469 226.039062 892.152344 224.601562 892.152344 "/>
<path fill-rule="nonzero" fill="#907aa9" fill-opacity="1" d="M 237.300781 884.726562 C 236.601562 884.726562 236.03125 885.296875 236.03125 885.996094 C 236.03125 886.695312 236.601562 887.265625 237.300781 887.265625 C 238 887.265625 238.570312 886.695312 238.570312 885.996094 C 238.570312 885.296875 238 884.726562 237.300781 884.726562 M 237.300781 888.605469 C 235.863281 888.605469 234.691406 887.433594 234.691406 885.996094 C 234.691406 884.5625 235.863281 883.390625 237.300781 883.390625 C 238.738281 883.390625 239.90625 884.5625 239.90625 885.996094 C 239.90625 887.433594 238.738281 888.605469 237.300781 888.605469 "/>
<path fill-rule="nonzero" fill="#907aa9" fill-opacity="1" d="M 246.039062 887.445312 C 245.339844 887.445312 244.769531 888.019531 244.769531 888.722656 C 244.769531 889.421875 245.339844 889.988281 246.039062 889.988281 C 246.738281 889.988281 247.308594 889.421875 247.308594 888.722656 C 247.308594 888.019531 246.738281 887.445312 246.039062 887.445312 M 246.039062 891.328125 C 244.601562 891.328125 243.433594 890.160156 243.433594 888.722656 C 243.433594 887.28125 244.601562 886.109375 246.039062 886.109375 C 247.476562 886.109375 248.644531 887.28125 248.644531 888.722656 C 248.644531 890.160156 247.476562 891.328125 246.039062 891.328125 "/>
<path fill-rule="nonzero" fill="#907aa9" fill-opacity="1" d="M 267.621094 888.277344 C 267.253906 888.277344 266.953125 887.976562 266.953125 887.605469 L 266.953125 875.554688 L 256.839844 865.449219 C 256.714844 865.324219 256.644531 865.152344 256.644531 864.972656 L 256.644531 863.601562 C 256.644531 863.234375 256.941406 862.933594 257.308594 862.933594 C 257.679688 862.933594 257.980469 863.234375 257.980469 863.601562 L 257.980469 864.695312 L 268.09375 874.804688 C 268.21875 874.929688 268.289062 875.101562 268.289062 875.277344 L 268.289062 887.605469 C 268.289062 887.976562 267.992188 888.277344 267.621094 888.277344 "/>
<path fill-rule="nonzero" fill="#907aa9" fill-opacity="1" d="M 261.679688 879.867188 C 261.3125 879.867188 261.011719 879.566406 261.011719 879.195312 L 261.011719 877.121094 L 250.824219 866.925781 C 250.699219 866.800781 250.628906 866.632812 250.628906 866.453125 L 250.628906 863.601562 C 250.628906 863.234375 250.925781 862.933594 251.296875 862.933594 C 251.664062 862.933594 251.964844 863.234375 251.964844 863.601562 L 251.964844 866.175781 L 262.152344 876.371094 C 262.28125 876.496094 262.351562 876.667969 262.351562 876.84375 L 262.351562 879.195312 C 262.351562 879.566406 262.050781 879.867188 261.679688 879.867188 "/>
<path fill-rule="nonzero" fill="#907aa9" fill-opacity="1" d="M 254.921875 884.726562 C 254.554688 884.726562 254.253906 884.429688 254.253906 884.058594 L 254.253906 878.660156 C 254.253906 878.484375 254.324219 878.3125 254.449219 878.1875 L 258.734375 873.898438 C 258.992188 873.636719 259.417969 873.636719 259.679688 873.898438 C 259.941406 874.15625 259.941406 874.582031 259.679688 874.84375 L 255.589844 878.9375 L 255.589844 884.058594 C 255.589844 884.429688 255.292969 884.726562 254.921875 884.726562 "/>
<path fill-rule="nonzero" fill="#907aa9" fill-opacity="1" d="M 267.621094 888.277344 C 266.917969 888.277344 266.347656 888.84375 266.347656 889.542969 C 266.347656 890.242188 266.917969 890.8125 267.621094 890.8125 C 268.320312 890.8125 268.890625 890.242188 268.890625 889.542969 C 268.890625 888.84375 268.320312 888.277344 267.621094 888.277344 M 267.621094 892.152344 C 266.179688 892.152344 265.007812 890.980469 265.007812 889.542969 C 265.007812 888.105469 266.179688 886.9375 267.621094 886.9375 C 269.058594 886.9375 270.226562 888.105469 270.226562 889.542969 C 270.226562 890.980469 269.058594 892.152344 267.621094 892.152344 "/>
<path fill-rule="nonzero" fill="#907aa9" fill-opacity="1" d="M 254.921875 884.726562 C 254.21875 884.726562 253.648438 885.296875 253.648438 885.996094 C 253.648438 886.695312 254.21875 887.265625 254.921875 887.265625 C 255.621094 887.265625 256.191406 886.695312 256.191406 885.996094 C 256.191406 885.296875 255.621094 884.726562 254.921875 884.726562 M 254.921875 888.605469 C 253.480469 888.605469 252.308594 887.433594 252.308594 885.996094 C 252.308594 884.5625 253.480469 883.390625 254.921875 883.390625 C 256.359375 883.390625 257.527344 884.5625 257.527344 885.996094 C 257.527344 887.433594 256.359375 888.605469 254.921875 888.605469 "/>
<path fill-rule="nonzero" fill="#907aa9" fill-opacity="1" d="M 264.769531 858.96875 L 226.679688 858.96875 L 226.679688 820.882812 L 264.769531 820.882812 Z M 264.769531 858.96875 "/>
</svg>
