<svg viewBox="0 0 480 300" fill="none" xmlns="http://www.w3.org/2000/svg">

  <!-- Dashed grid lines (vertical) -->
  <line x1="150" y1="35" x2="150" y2="255" stroke="#907aa9" stroke-width="0.75" stroke-opacity="0.18" stroke-dasharray="4,4"/>
  <line x1="230" y1="35" x2="230" y2="255" stroke="#907aa9" stroke-width="0.75" stroke-opacity="0.18" stroke-dasharray="4,4"/>
  <line x1="310" y1="35" x2="310" y2="255" stroke="#907aa9" stroke-width="0.75" stroke-opacity="0.18" stroke-dasharray="4,4"/>
  <line x1="390" y1="35" x2="390" y2="255" stroke="#907aa9" stroke-width="0.75" stroke-opacity="0.18" stroke-dasharray="4,4"/>

  <!-- Dashed grid lines (horizontal) -->
  <line x1="55" y1="75"  x2="450" y2="75"  stroke="#907aa9" stroke-width="0.75" stroke-opacity="0.18" stroke-dasharray="4,4"/>
  <line x1="55" y1="135" x2="450" y2="135" stroke="#907aa9" stroke-width="0.75" stroke-opacity="0.18" stroke-dasharray="4,4"/>
  <line x1="55" y1="195" x2="450" y2="195" stroke="#907aa9" stroke-width="0.75" stroke-opacity="0.18" stroke-dasharray="4,4"/>

  <!-- Axes -->
  <line x1="55" y1="255" x2="450" y2="255" stroke="#907aa9" stroke-width="1.5"/>
  <line x1="55" y1="255" x2="55"  y2="35"  stroke="#907aa9" stroke-width="1.5"/>

  <!-- X-axis tick marks -->
  <line x1="150" y1="252" x2="150" y2="258" stroke="#907aa9" stroke-width="1" stroke-opacity="0.6"/>
  <line x1="230" y1="252" x2="230" y2="258" stroke="#907aa9" stroke-width="1" stroke-opacity="0.6"/>
  <line x1="310" y1="252" x2="310" y2="258" stroke="#907aa9" stroke-width="1" stroke-opacity="0.6"/>
  <line x1="390" y1="252" x2="390" y2="258" stroke="#907aa9" stroke-width="1" stroke-opacity="0.6"/>

  <!-- Y-axis tick marks -->
  <line x1="52" y1="75"  x2="58" y2="75"  stroke="#907aa9" stroke-width="1" stroke-opacity="0.6"/>
  <line x1="52" y1="135" x2="58" y2="135" stroke="#907aa9" stroke-width="1" stroke-opacity="0.6"/>
  <line x1="52" y1="195" x2="58" y2="195" stroke="#907aa9" stroke-width="1" stroke-opacity="0.6"/>

  <!-- Cluster highlight ellipse (dashed Love) -->
  <ellipse cx="392" cy="107" rx="58" ry="48"
           fill="#b4637a" fill-opacity="0.07"
           stroke="#b4637a" stroke-width="1.5" stroke-dasharray="5,3"/>

  <!-- Trend line -->
  <path d="M 75 242 C 180 212 290 162 440 82"
        stroke="#b4637a" stroke-width="2" stroke-linecap="round"/>

  <!-- Regular data points (Iris) -->
  <circle cx="85"  cy="240" r="4"   fill="#907aa9" fill-opacity="0.6" stroke="#907aa9" stroke-width="1"/>
  <circle cx="108" cy="230" r="3"   fill="#907aa9" fill-opacity="0.6" stroke="#907aa9" stroke-width="1"/>
  <circle cx="128" cy="234" r="4.5" fill="#907aa9" fill-opacity="0.6" stroke="#907aa9" stroke-width="1"/>
  <circle cx="152" cy="220" r="3.5" fill="#907aa9" fill-opacity="0.6" stroke="#907aa9" stroke-width="1"/>
  <circle cx="170" cy="212" r="4"   fill="#907aa9" fill-opacity="0.6" stroke="#907aa9" stroke-width="1"/>
  <circle cx="192" cy="207" r="3"   fill="#907aa9" fill-opacity="0.6" stroke="#907aa9" stroke-width="1"/>
  <circle cx="212" cy="198" r="5"   fill="#907aa9" fill-opacity="0.6" stroke="#907aa9" stroke-width="1"/>
  <circle cx="235" cy="187" r="3.5" fill="#907aa9" fill-opacity="0.6" stroke="#907aa9" stroke-width="1"/>
  <circle cx="258" cy="178" r="4"   fill="#907aa9" fill-opacity="0.6" stroke="#907aa9" stroke-width="1"/>
  <circle cx="275" cy="172" r="3"   fill="#907aa9" fill-opacity="0.6" stroke="#907aa9" stroke-width="1"/>
  <circle cx="298" cy="160" r="4.5" fill="#907aa9" fill-opacity="0.6" stroke="#907aa9" stroke-width="1"/>
  <circle cx="318" cy="152" r="3.5" fill="#907aa9" fill-opacity="0.6" stroke="#907aa9" stroke-width="1"/>
  <circle cx="340" cy="142" r="4"   fill="#907aa9" fill-opacity="0.6" stroke="#907aa9" stroke-width="1"/>

  <!-- Highlighted cluster points (Love) -->
  <circle cx="358" cy="130" r="4.5" fill="#b4637a" fill-opacity="0.72" stroke="#b4637a" stroke-width="1.5"/>
  <circle cx="375" cy="120" r="5"   fill="#b4637a" fill-opacity="0.72" stroke="#b4637a" stroke-width="1.5"/>
  <circle cx="392" cy="110" r="4"   fill="#b4637a" fill-opacity="0.72" stroke="#b4637a" stroke-width="1.5"/>
  <circle cx="410" cy="97"  r="5.5" fill="#b4637a" fill-opacity="0.72" stroke="#b4637a" stroke-width="1.5"/>
  <circle cx="430" cy="88"  r="4"   fill="#b4637a" fill-opacity="0.72" stroke="#b4637a" stroke-width="1.5"/>
</svg>
